<?xml version="1.0" encoding="utf-8"?>
<!-- Generator: Adobe Illustrator 16.0.0, SVG Export Plug-In . SVG Version: 6.00 Build 0)  -->
<svg version="1.2" baseProfile="tiny" id="Layer_1" xmlns="http://www.w3.org/2000/svg" xmlns:xlink="http://www.w3.org/1999/xlink"
	 x="0px" y="0px" width="800px" height="240px" viewBox="0 0 800 240" xml:space="preserve">
<g>
	<g>
		<polygon fill="#4E87B2" points="723.909,233.528 615.826,233.545 544.151,109.401 598.193,15.814 		"/>
		<polygon fill="#4E87B2" points="593.104,5.623 485.02,5.605 413.345,129.75 467.387,223.335 		"/>
		<polygon fill="#4E87B2" points="462.297,233.528 354.214,233.545 282.539,109.401 336.579,15.814 		"/>
	</g>
	<polygon fill="none" stroke="#FFFFFF" stroke-width="6" stroke-miterlimit="10" points="723.909,233.528 544.151,109.401 
		485.02,5.605 467.387,223.335 462.297,233.528 282.539,109.401 336.579,15.814 354.214,233.545 413.345,129.75 593.104,5.623 
		598.193,15.814 615.826,233.545 	"/>
</g>
<g>
	<path fill="#4E87B2" d="M199.078,130.789v1.383c-1.984-1.055-3.93-1.582-5.836-1.582c-2.031,0-3.73,0.691-5.098,2.074
		s-2.051,3.109-2.051,5.18c0,2.094,0.688,3.816,2.063,5.168s3.129,2.027,5.262,2.027c1.781,0,3.723-0.559,5.824-1.676v1.313
		c-1.938,1.023-3.871,1.535-5.801,1.535c-2.492,0-4.568-0.799-6.229-2.396s-2.49-3.588-2.49-5.971c0-2.398,0.848-4.402,2.543-6.012
		s3.715-2.414,6.059-2.414C195.168,129.418,197.086,129.875,199.078,130.789z"/>
	<path fill="#4E87B2" d="M206.297,135.008c1.563,0,2.865,0.535,3.908,1.605s1.564,2.406,1.564,4.008c0,1.594-0.521,2.924-1.564,3.99
		s-2.346,1.6-3.908,1.6s-2.869-0.533-3.92-1.6s-1.576-2.396-1.576-3.99c0-1.602,0.525-2.938,1.576-4.008
		S204.734,135.008,206.297,135.008z M206.297,145.086c1.211,0,2.223-0.424,3.035-1.271s1.219-1.912,1.219-3.193
		c0-1.273-0.408-2.34-1.225-3.199s-1.826-1.289-3.029-1.289c-1.219,0-2.236,0.426-3.053,1.277s-1.225,1.922-1.225,3.211
		c0,1.281,0.408,2.346,1.225,3.193S205.078,145.086,206.297,145.086z"/>
	<path fill="#4E87B2" d="M223.582,129.629V146h-1.16v-0.844c-0.984,0.703-2.047,1.055-3.188,1.055c-1.531,0-2.822-0.541-3.873-1.623
		s-1.576-2.412-1.576-3.99c0-1.602,0.518-2.934,1.553-3.996s2.334-1.594,3.896-1.594c0.992,0,2.055,0.289,3.188,0.867v-6.246
		H223.582z M222.422,144.102v-6.961c-1.031-0.672-2.078-1.008-3.141-1.008c-1.242,0-2.266,0.412-3.07,1.236
		s-1.207,1.877-1.207,3.158c0,1.305,0.43,2.391,1.289,3.258s1.934,1.301,3.223,1.301
		C220.516,145.086,221.484,144.758,222.422,144.102z"/>
	<path fill="#4E87B2" d="M235.711,140.211h-8.496c-0.023,0.188-0.035,0.375-0.035,0.563c0,1.203,0.43,2.223,1.289,3.059
		s1.875,1.254,3.047,1.254c1.367,0,2.703-0.535,4.008-1.605v1.301c-1.234,0.953-2.617,1.43-4.148,1.43
		c-1.555,0-2.84-0.539-3.855-1.617s-1.523-2.449-1.523-4.113c0-1.578,0.469-2.885,1.406-3.92s2.117-1.553,3.539-1.553
		c1.336,0,2.465,0.467,3.387,1.4S235.711,138.609,235.711,140.211z M227.367,139.285h6.984c-0.406-2.102-1.543-3.152-3.41-3.152
		c-0.883,0-1.646,0.275-2.291,0.826S227.578,138.285,227.367,139.285z"/>
	<path fill="#4E87B2" d="M239.168,135.219v1.875h0.047c0.898-1.391,2.082-2.086,3.551-2.086c1.219,0,2.191,0.391,2.918,1.172
		s1.09,1.863,1.09,3.246V146h-1.148v-6.141c0-2.484-0.977-3.727-2.93-3.727c-1.43,0-2.605,0.77-3.527,2.309V146h-1.148v-10.781
		H239.168z"/>
	<path fill="#4E87B2" d="M258.398,144.125v0.961c-0.992,0.75-1.719,1.125-2.18,1.125c-0.266,0-0.449-0.088-0.551-0.264
		s-0.176-0.533-0.223-1.072c-1.133,0.891-2.258,1.336-3.375,1.336c-0.813,0-1.5-0.266-2.063-0.797s-0.844-1.176-0.844-1.934
		c0-1.172,0.543-2.096,1.629-2.771s2.637-1.064,4.652-1.166v-1.371c0-1.469-0.797-2.203-2.391-2.203
		c-1.016,0-2.113,0.457-3.293,1.371v-1.184c1.219-0.766,2.379-1.148,3.48-1.148c0.977,0,1.781,0.24,2.414,0.721
		s0.949,1.178,0.949,2.092v6.715c0,0.367,0.086,0.551,0.258,0.551C257.082,145.086,257.594,144.766,258.398,144.125z
		 M255.445,143.867v-3.363c-1.477-0.055-2.701,0.205-3.674,0.779s-1.459,1.307-1.459,2.197c0,0.5,0.203,0.922,0.609,1.266
		s0.914,0.516,1.523,0.516C253.43,145.262,254.43,144.797,255.445,143.867z"/>
	<path fill="#4E87B2" d="M261.129,135.219v1.898h0.047c0.875-1.406,2.02-2.109,3.434-2.109c1.648,0,2.809,0.863,3.48,2.59
		c1.014-1.727,2.262-2.59,3.744-2.59c1.115,0,2.017,0.398,2.703,1.195c0.687,0.797,1.03,1.855,1.03,3.176V146h-1.148v-6.117
		c0-1.164-0.246-2.08-0.737-2.748s-1.181-1.002-2.07-1.002c-0.663,0-1.24,0.199-1.731,0.598s-0.998,1.039-1.521,1.922V146h-1.16
		v-6.141c0-1.195-0.256-2.115-0.768-2.76s-1.197-0.967-2.057-0.967c-1.25,0-2.332,0.77-3.246,2.309V146h-1.148v-10.781H261.129z"/>
	<path fill="#4E87B2" d="M287.719,140.211h-8.496c-0.023,0.188-0.035,0.375-0.035,0.563c0,1.203,0.43,2.223,1.289,3.059
		s1.875,1.254,3.047,1.254c1.367,0,2.703-0.535,4.008-1.605v1.301c-1.234,0.953-2.617,1.43-4.148,1.43
		c-1.555,0-2.84-0.539-3.855-1.617s-1.523-2.449-1.523-4.113c0-1.578,0.469-2.885,1.406-3.92s2.117-1.553,3.539-1.553
		c1.336,0,2.465,0.467,3.387,1.4S287.719,138.609,287.719,140.211z M279.375,139.285h6.984c-0.406-2.102-1.543-3.152-3.41-3.152
		c-0.883,0-1.646,0.275-2.291,0.826S279.586,138.285,279.375,139.285z"/>
	<path fill="#4E87B2" d="M114.117,149.258V182h-2.083l-24.893-28.617V182h-2.531v-32.742h2.145l24.832,28.617v-28.617H114.117z"/>
	<path fill="#4E87B2" d="M130.875,160.016c3.125,0,5.73,1.07,7.816,3.211s3.129,4.813,3.129,8.016c0,3.188-1.043,5.848-3.129,7.98
		s-4.691,3.199-7.816,3.199s-5.738-1.066-7.84-3.199s-3.152-4.793-3.152-7.98c0-3.203,1.051-5.875,3.152-8.016
		S127.75,160.016,130.875,160.016z M130.875,180.172c2.422,0,4.445-0.848,6.07-2.543s2.438-3.824,2.438-6.387
		c0-2.547-0.816-4.68-2.449-6.398s-3.652-2.578-6.059-2.578c-2.438,0-4.473,0.852-6.105,2.555s-2.449,3.844-2.449,6.422
		c0,2.563,0.816,4.691,2.449,6.387S128.438,180.172,130.875,180.172z"/>
	<path fill="#4E87B2" d="M161.789,162.57l-1.336,2.156c-1.797-1.641-3.242-2.461-4.336-2.461c-2.156,0-4.461,2.063-6.914,6.188V182
		h-2.297v-21.563h2.297v5.672h0.094c2.578-4.063,5.094-6.094,7.547-6.094C158.25,160.016,159.898,160.867,161.789,162.57z"/>
	<path fill="#4E87B2" d="M170.906,153.289v7.148h6.047v1.875h-6.047v12.82c0,2.063,0.168,3.418,0.504,4.066s1.238,0.973,2.707,0.973
		c1.125,0,2.438-0.352,3.938-1.055v2.203c-1.516,0.734-3,1.102-4.453,1.102c-1.422,0-2.609-0.406-3.563-1.219
		s-1.43-1.938-1.43-3.375v-15.516h-5.813v-1.875h5.813v-5.133l1.57-2.016H170.906z"/>
	<path fill="#4E87B2" d="M183.469,149.258v14.93h0.094c1.797-2.781,4.164-4.172,7.102-4.172c2.438,0,4.383,0.781,5.836,2.344
		s2.18,3.711,2.18,6.445V182h-2.297v-12.281c0-4.969-1.953-7.453-5.859-7.453c-2.797,0-5.148,1.539-7.055,4.617V182h-2.297v-32.742
		H183.469z"/>
	<path fill="#4E87B2" d="M234.258,150.898v2.789c-2.844-1.672-5.289-2.508-7.336-2.508c-1.969,0-3.613,0.598-4.934,1.793
		s-1.98,2.676-1.98,4.441c0,1.266,0.391,2.406,1.172,3.422s2.414,1.992,4.898,2.93s4.297,1.719,5.438,2.344s2.109,1.531,2.906,2.719
		s1.195,2.727,1.195,4.617c0,2.516-0.922,4.641-2.766,6.375s-4.094,2.602-6.75,2.602c-2.719,0-5.516-0.953-8.391-2.859v-2.977
		c3.172,2.328,5.922,3.492,8.25,3.492c1.938,0,3.574-0.629,4.91-1.887s2.004-2.801,2.004-4.63c0-1.391-0.414-2.645-1.242-3.762
		s-2.507-2.162-5.037-3.134c-2.53-0.971-4.339-1.754-5.425-2.347c-1.087-0.593-2.009-1.44-2.767-2.542
		c-0.759-1.101-1.138-2.518-1.138-4.251c0-2.405,0.922-4.454,2.766-6.149c1.844-1.693,4.063-2.541,6.656-2.541
		C229.234,148.836,231.758,149.523,234.258,150.898z"/>
	<path fill="#4E87B2" d="M244.781,153.289v7.148h6.047v1.875h-6.047v12.82c0,2.063,0.168,3.418,0.504,4.066s1.238,0.973,2.707,0.973
		c1.125,0,2.438-0.352,3.938-1.055v2.203c-1.516,0.734-3,1.102-4.453,1.102c-1.422,0-2.609-0.406-3.563-1.219
		s-1.43-1.938-1.43-3.375v-15.516h-5.813v-1.875h5.813v-5.133l1.57-2.016H244.781z"/>
	<path fill="#4E87B2" d="M272.273,178.25v1.922c-1.984,1.5-3.438,2.25-4.359,2.25c-0.531,0-0.898-0.176-1.102-0.527
		s-0.352-1.066-0.445-2.145c-2.266,1.781-4.516,2.672-6.75,2.672c-1.625,0-3-0.531-4.125-1.594s-1.688-2.352-1.688-3.867
		c0-2.344,1.086-4.191,3.258-5.543s5.273-2.129,9.305-2.332v-2.742c0-2.938-1.594-4.406-4.781-4.406
		c-2.031,0-4.227,0.914-6.586,2.742v-2.367c2.438-1.531,4.758-2.297,6.961-2.297c1.953,0,3.563,0.48,4.828,1.441
		s1.898,2.355,1.898,4.184v13.43c0,0.734,0.172,1.102,0.516,1.102C269.641,180.172,270.664,179.531,272.273,178.25z
		 M266.367,177.734v-6.727c-2.953-0.109-5.402,0.41-7.348,1.559s-2.918,2.613-2.918,4.395c0,1,0.406,1.844,1.219,2.531
		s1.828,1.031,3.047,1.031C262.336,180.523,264.336,179.594,266.367,177.734z"/>
	<path fill="#4E87B2" d="M290.461,162.57l-1.336,2.156c-1.797-1.641-3.242-2.461-4.336-2.461c-2.156,0-4.461,2.063-6.914,6.188V182
		h-2.297v-21.563h2.297v5.672h0.094c2.578-4.063,5.094-6.094,7.547-6.094C286.922,160.016,288.57,160.867,290.461,162.57z"/>
</g>
<g>
	<path fill="#4E87B2" d="M181.316,192.722h-4.468c-0.73,0-1.185,0.188-1.364,0.562c-0.107,0.217-0.161,0.729-0.161,1.538
		c0,0.423,0.138,0.748,0.414,0.978c0.228,0.181,0.6,0.271,1.116,0.271h1.854c0.792,0,1.425,0.216,1.899,0.647
		c0.474,0.433,0.711,1.038,0.711,1.818v1.908c0,0.828-0.243,1.461-0.73,1.898c-0.487,0.438-1.152,0.657-1.994,0.657h-5.016v-1.728
		h4.509c0.749,0,1.213-0.207,1.394-0.619c0.084-0.194,0.127-0.733,0.127-1.618c0-0.825-0.488-1.237-1.462-1.237h-1.859
		c-0.771,0-1.402-0.203-1.896-0.61c-0.542-0.442-0.813-1.041-0.813-1.795v-1.867c0-0.85,0.293-1.52,0.88-2.011
		c0.407-0.347,1-0.521,1.778-0.521h5.082V192.722z"/>
	<path fill="#4E87B2" d="M190.784,197.87h-6.066V203h-1.746v-9.558c0-0.792,0.27-1.423,0.81-1.891
		c0.432-0.371,1.074-0.558,1.926-0.558h5.076v1.728h-4.608c-0.972,0-1.458,0.423-1.458,1.267v2.153h6.066V197.87z"/>
	<path fill="#4E87B2" d="M199.892,203h-4.986c-0.864,0-1.537-0.21-2.016-0.63c-0.528-0.444-0.792-1.086-0.792-1.926v-6.786
		c0-0.828,0.234-1.479,0.702-1.953c0.468-0.474,1.116-0.711,1.944-0.711h5.148v1.728h-4.536c-1.008,0-1.512,0.453-1.512,1.357v2.063
		h6.048v1.729h-6.048v2.026c0,0.917,0.51,1.376,1.53,1.376h4.518V203z"/>
	<path fill="#4E87B2" d="M203.402,203h-1.746v-12.006h1.746V203z"/>
	<path fill="#4E87B2" d="M216.253,192.722h-4.468c-0.73,0-1.185,0.188-1.364,0.562c-0.107,0.217-0.161,0.729-0.161,1.538
		c0,0.423,0.138,0.748,0.414,0.978c0.228,0.181,0.6,0.271,1.116,0.271h1.854c0.792,0,1.425,0.216,1.899,0.647
		c0.474,0.433,0.711,1.038,0.711,1.818v1.908c0,0.828-0.243,1.461-0.73,1.898c-0.487,0.438-1.152,0.657-1.994,0.657h-5.016v-1.728
		h4.509c0.749,0,1.213-0.207,1.394-0.619c0.084-0.194,0.127-0.733,0.127-1.618c0-0.825-0.488-1.237-1.462-1.237h-1.859
		c-0.771,0-1.402-0.203-1.896-0.61c-0.542-0.442-0.813-1.041-0.813-1.795v-1.867c0-0.85,0.293-1.52,0.88-2.011
		c0.407-0.347,1-0.521,1.778-0.521h5.082V192.722z"/>
	<path fill="#4E87B2" d="M225.504,203.792c0,0.72-0.204,1.302-0.612,1.746c-0.408,0.443-0.966,0.666-1.674,0.666h-5.184v-1.566
		h4.766c0.518,0,0.861-0.156,1.029-0.468c0.096-0.204,0.145-0.594,0.145-1.17h-3.521c-0.734,0-1.306-0.198-1.715-0.594
		c-0.47-0.456-0.704-1.038-0.704-1.746v-6.678h1.53v6.245c0,0.816,0.405,1.225,1.216,1.225h2.795c0.266,0,0.399-0.156,0.399-0.468
		v-7.002h1.53V203.792z"/>
	<path fill="#4E87B2" d="M234.09,195.494h-4.072c-0.371,0-0.646,0.061-0.825,0.182c-0.251,0.169-0.376,0.399-0.376,0.689v0.363
		c0,0.629,0.414,0.943,1.242,0.943h2.016c0.587,0,1.071,0.198,1.449,0.594c0.378,0.396,0.567,0.889,0.567,1.477v1.134
		c0,0.564-0.191,1.068-0.574,1.512c-0.228,0.265-0.467,0.438-0.718,0.522c-0.204,0.06-0.502,0.09-0.897,0.09h-4.614v-1.548h4.197
		c0.431,0,0.718-0.12,0.861-0.36c0.107-0.168,0.161-0.479,0.161-0.936c0-0.624-0.336-0.937-1.008-0.937h-1.908
		c-0.648,0-1.182-0.174-1.602-0.521c-0.468-0.372-0.702-0.87-0.702-1.494v-1.206c0-0.672,0.269-1.218,0.808-1.638
		c0.323-0.252,0.826-0.378,1.508-0.378h4.488V195.494z"/>
	<path fill="#4E87B2" d="M239.4,195.494h-1.98V203h-1.53v-12.204h1.53v3.187h1.98V195.494z"/>
	<path fill="#4E87B2" d="M248.166,197.528l-5.922,2.412v0.27c0,0.48,0.132,0.822,0.397,1.026c0.181,0.144,0.494,0.216,0.939,0.216
		h4.586V203h-4.872c-0.842,0-1.461-0.168-1.858-0.504c-0.505-0.42-0.758-1.068-0.758-1.944v-4.266c0-1.536,0.822-2.304,2.466-2.304
		h2.718c1.536,0,2.304,0.804,2.304,2.411V197.528z M246.582,196.653v-0.146c0-0.676-0.406-1.014-1.219-1.014h-1.703
		c-0.944,0-1.416,0.387-1.416,1.159v1.793L246.582,196.653z"/>
	<path fill="#4E87B2" d="M260.874,203h-1.53v-6.279c0-0.613-0.218-0.992-0.652-1.137c-0.169-0.06-0.652-0.09-1.448-0.09
		c-0.35,0-0.634,0.126-0.851,0.379c-0.145,0.168-0.217,0.463-0.217,0.884V203h-1.53v-6.243c0-0.613-0.186-0.998-0.558-1.154
		c-0.192-0.072-0.666-0.108-1.422-0.108c-0.804,0-1.206,0.409-1.206,1.227V203h-1.53v-6.642c0-1.584,0.75-2.376,2.25-2.376h1.404
		c0.456,0,0.816,0.065,1.08,0.197c0.264,0.133,0.516,0.378,0.756,0.738c0.432-0.624,1.05-0.936,1.854-0.936h1.386
		c0.684,0,1.224,0.21,1.62,0.63s0.594,1.002,0.594,1.746V203z"/>
	<path fill="#4E87B2" d="M269.333,195.494h-4.072c-0.371,0-0.646,0.061-0.825,0.182c-0.251,0.169-0.376,0.399-0.376,0.689v0.363
		c0,0.629,0.414,0.943,1.242,0.943h2.016c0.587,0,1.071,0.198,1.449,0.594c0.378,0.396,0.567,0.889,0.567,1.477v1.134
		c0,0.564-0.191,1.068-0.574,1.512c-0.228,0.265-0.467,0.438-0.718,0.522c-0.204,0.06-0.502,0.09-0.897,0.09h-4.614v-1.548h4.197
		c0.431,0,0.718-0.12,0.861-0.36c0.107-0.168,0.161-0.479,0.161-0.936c0-0.624-0.336-0.937-1.008-0.937h-1.908
		c-0.648,0-1.182-0.174-1.602-0.521c-0.468-0.372-0.702-0.87-0.702-1.494v-1.206c0-0.672,0.269-1.218,0.808-1.638
		c0.323-0.252,0.826-0.378,1.508-0.378h4.488V195.494z"/>
	<path fill="#4E87B2" d="M279.053,190.994L272.213,203h-1.656l6.822-12.006H279.053z"/>
	<path fill="#4E87B2" d="M287.945,197.708l-7.812,3.726v-1.548l6.156-2.844l-6.156-2.862v-1.529l7.812,3.726V197.708z"/>
	<path fill="#4E87B2" d="M77.638,224.6h-1.746v-12.006h1.746V224.6z"/>
	<path fill="#4E87B2" d="M90.489,224.6h-1.53v-6.279c0-0.613-0.218-0.992-0.652-1.137c-0.169-0.06-0.652-0.09-1.448-0.09
		c-0.35,0-0.634,0.126-0.851,0.379c-0.145,0.168-0.217,0.463-0.217,0.884v6.243h-1.53v-6.243c0-0.613-0.186-0.998-0.558-1.154
		c-0.192-0.072-0.666-0.108-1.422-0.108c-0.804,0-1.206,0.409-1.206,1.227v6.279h-1.53v-6.642c0-1.584,0.75-2.376,2.25-2.376h1.404
		c0.456,0,0.816,0.065,1.08,0.197c0.264,0.133,0.516,0.378,0.756,0.738c0.432-0.624,1.05-0.936,1.854-0.936h1.386
		c0.684,0,1.224,0.21,1.62,0.63s0.594,1.002,0.594,1.746V224.6z"/>
	<path fill="#4E87B2" d="M99.903,222.35c0,0.672-0.195,1.215-0.585,1.629c-0.39,0.414-0.921,0.621-1.593,0.621h-2.952
		c-0.708,0-1.272-0.18-1.692-0.54c-0.457-0.384-0.684-0.924-0.684-1.62v-1.62c0-0.708,0.204-1.26,0.612-1.655
		c0.408-0.396,0.966-0.595,1.674-0.595h3.69c-0.012-0.51-0.085-0.868-0.218-1.075c-0.169-0.267-0.495-0.4-0.978-0.4h-4.781v-1.512
		h4.992c1.676,0,2.514,0.762,2.514,2.285V222.35z M98.373,222.044v-1.729c0-0.191-0.121-0.288-0.363-0.288h-2.977
		c-0.738,0-1.107,0.372-1.107,1.116v0.882c0,0.313,0.109,0.562,0.327,0.747c0.218,0.187,0.484,0.279,0.798,0.279h2.232
		C98.01,223.052,98.373,222.716,98.373,222.044z"/>
	<path fill="#4E87B2" d="M109.335,225.392c0,1.608-0.872,2.412-2.615,2.412h-4.891v-1.512h4.702c0.55,0,0.915-0.158,1.095-0.474
		c0.12-0.218,0.179-0.624,0.179-1.219h-3.412c-0.854,0-1.496-0.201-1.923-0.603c-0.427-0.402-0.641-0.964-0.641-1.684v-4.212
		c0-0.864,0.186-1.5,0.558-1.908c0.372-0.407,0.99-0.611,1.854-0.611h2.574c0.876,0,1.515,0.177,1.917,0.53
		c0.402,0.354,0.603,0.963,0.603,1.827V225.392z M107.805,222.708v-4.278c0-0.457-0.084-0.771-0.252-0.938
		c-0.264-0.265-0.612-0.397-1.044-0.397h-1.926c-0.816,0-1.224,0.403-1.224,1.21v3.538c0,0.807,0.45,1.21,1.35,1.21h2.754
		C107.691,223.052,107.805,222.938,107.805,222.708z"/>
	<path fill="#4E87B2" d="M113.043,213.188c0,0.276-0.102,0.517-0.306,0.72c-0.205,0.204-0.444,0.307-0.72,0.307
		c-0.276,0-0.513-0.1-0.711-0.297c-0.198-0.198-0.297-0.436-0.297-0.711c0-0.288,0.096-0.534,0.288-0.738s0.432-0.307,0.72-0.307
		s0.531,0.1,0.729,0.298C112.944,212.656,113.043,212.899,113.043,213.188z M112.809,224.6h-1.53v-9.018h1.53V224.6z"/>
	<path fill="#4E87B2" d="M122.133,224.6h-1.53v-6.405c0-0.733-0.434-1.101-1.301-1.101h-1.735c-0.879,0-1.319,0.367-1.319,1.101
		v6.405h-1.53v-6.822c0-1.464,0.786-2.195,2.358-2.195h2.718c1.56,0,2.34,0.731,2.34,2.195V224.6z"/>
	<path fill="#4E87B2" d="M131.565,225.392c0,1.608-0.872,2.412-2.615,2.412h-4.891v-1.512h4.702c0.55,0,0.915-0.158,1.095-0.474
		c0.12-0.218,0.179-0.624,0.179-1.219h-3.412c-0.854,0-1.496-0.201-1.923-0.603c-0.427-0.402-0.641-0.964-0.641-1.684v-4.212
		c0-0.864,0.186-1.5,0.558-1.908c0.372-0.407,0.99-0.611,1.854-0.611h2.574c0.876,0,1.515,0.177,1.917,0.53
		c0.402,0.354,0.603,0.963,0.603,1.827V225.392z M130.035,222.708v-4.278c0-0.457-0.084-0.771-0.252-0.938
		c-0.264-0.265-0.612-0.397-1.044-0.397h-1.926c-0.816,0-1.224,0.403-1.224,1.21v3.538c0,0.807,0.45,1.21,1.35,1.21h2.754
		C129.921,223.052,130.035,222.938,130.035,222.708z"/>
	<path fill="#4E87B2" d="M145.641,221.846c0,0.84-0.225,1.509-0.675,2.007c-0.45,0.498-1.089,0.747-1.917,0.747h-6.102v-12.006
		h6.066c1.752,0,2.628,0.899,2.628,2.7V221.846z M143.931,221.299v-5.549c0-0.952-0.482-1.429-1.445-1.429h-3.793v8.551h3.793
		C143.449,222.872,143.931,222.348,143.931,221.299z"/>
	<path fill="#4E87B2" d="M155.054,222.35c0,0.672-0.195,1.215-0.585,1.629c-0.39,0.414-0.921,0.621-1.593,0.621h-2.952
		c-0.708,0-1.272-0.18-1.692-0.54c-0.457-0.384-0.684-0.924-0.684-1.62v-1.62c0-0.708,0.204-1.26,0.612-1.655
		c0.408-0.396,0.966-0.595,1.674-0.595h3.69c-0.012-0.51-0.085-0.868-0.218-1.075c-0.169-0.267-0.495-0.4-0.978-0.4h-4.781v-1.512
		h4.992c1.676,0,2.514,0.762,2.514,2.285V222.35z M153.524,222.044v-1.729c0-0.191-0.121-0.288-0.363-0.288h-2.977
		c-0.738,0-1.107,0.372-1.107,1.116v0.882c0,0.313,0.109,0.562,0.327,0.747c0.218,0.187,0.484,0.279,0.798,0.279h2.232
		C153.161,223.052,153.524,222.716,153.524,222.044z"/>
	<path fill="#4E87B2" d="M160.508,217.094h-1.98v7.506h-1.53v-12.204h1.53v3.187h1.98V217.094z"/>
	<path fill="#4E87B2" d="M169.31,222.35c0,0.672-0.195,1.215-0.585,1.629c-0.39,0.414-0.921,0.621-1.593,0.621h-2.952
		c-0.708,0-1.272-0.18-1.692-0.54c-0.457-0.384-0.684-0.924-0.684-1.62v-1.62c0-0.708,0.204-1.26,0.612-1.655
		c0.408-0.396,0.966-0.595,1.674-0.595h3.69c-0.012-0.51-0.085-0.868-0.218-1.075c-0.169-0.267-0.495-0.4-0.978-0.4h-4.781v-1.512
		h4.992c1.676,0,2.514,0.762,2.514,2.285V222.35z M167.78,222.044v-1.729c0-0.191-0.121-0.288-0.363-0.288h-2.977
		c-0.738,0-1.107,0.372-1.107,1.116v0.882c0,0.313,0.109,0.562,0.327,0.747c0.218,0.187,0.484,0.279,0.798,0.279h2.232
		C167.417,223.052,167.78,222.716,167.78,222.044z"/>
	<path fill="#4E87B2" d="M178.814,222.188c0,1.608-0.786,2.412-2.358,2.412h-2.718c-0.696,0-1.287-0.195-1.773-0.585
		c-0.486-0.39-0.729-1.017-0.729-1.881v-9.738h1.53v3.187h3.701c0.722,0,1.293,0.216,1.715,0.647s0.632,1.008,0.632,1.729V222.188z
		 M177.284,221.81v-3.438c0-0.828-0.423-1.242-1.27-1.242h-2.867c-0.254,0-0.381,0.12-0.381,0.359v4.41
		c0,0.769,0.454,1.152,1.361,1.152h1.887c0.472,0,0.816-0.114,1.034-0.342C177.205,222.542,177.284,222.241,177.284,221.81z"/>
	<path fill="#4E87B2" d="M188.228,222.35c0,0.672-0.195,1.215-0.585,1.629c-0.39,0.414-0.921,0.621-1.593,0.621h-2.952
		c-0.708,0-1.272-0.18-1.692-0.54c-0.457-0.384-0.684-0.924-0.684-1.62v-1.62c0-0.708,0.204-1.26,0.612-1.655
		c0.408-0.396,0.966-0.595,1.674-0.595h3.69c-0.012-0.51-0.085-0.868-0.218-1.075c-0.169-0.267-0.495-0.4-0.978-0.4h-4.781v-1.512
		h4.992c1.676,0,2.514,0.762,2.514,2.285V222.35z M186.698,222.044v-1.729c0-0.191-0.121-0.288-0.363-0.288h-2.977
		c-0.738,0-1.107,0.372-1.107,1.116v0.882c0,0.313,0.109,0.562,0.327,0.747c0.218,0.187,0.484,0.279,0.798,0.279h2.232
		C186.334,223.052,186.698,222.716,186.698,222.044z"/>
	<path fill="#4E87B2" d="M196.813,217.094h-4.072c-0.371,0-0.646,0.061-0.825,0.182c-0.251,0.169-0.376,0.399-0.376,0.689v0.363
		c0,0.629,0.414,0.943,1.242,0.943h2.016c0.587,0,1.071,0.198,1.449,0.594c0.378,0.396,0.567,0.889,0.567,1.477v1.134
		c0,0.564-0.191,1.068-0.574,1.512c-0.228,0.265-0.467,0.438-0.718,0.522c-0.204,0.06-0.502,0.09-0.897,0.09h-4.614v-1.548h4.197
		c0.431,0,0.718-0.12,0.861-0.36c0.107-0.168,0.161-0.479,0.161-0.936c0-0.624-0.336-0.937-1.008-0.937h-1.908
		c-0.648,0-1.182-0.174-1.602-0.521c-0.468-0.372-0.702-0.87-0.702-1.494v-1.206c0-0.672,0.269-1.218,0.808-1.638
		c0.323-0.252,0.826-0.378,1.508-0.378h4.488V217.094z"/>
	<path fill="#4E87B2" d="M206.083,219.128l-5.922,2.412v0.27c0,0.48,0.132,0.822,0.397,1.026c0.181,0.144,0.494,0.216,0.939,0.216
		h4.586v1.548h-4.872c-0.842,0-1.461-0.168-1.858-0.504c-0.505-0.42-0.758-1.068-0.758-1.944v-4.266
		c0-1.536,0.822-2.304,2.466-2.304h2.718c1.536,0,2.304,0.804,2.304,2.411V219.128z M204.499,218.253v-0.146
		c0-0.676-0.406-1.014-1.219-1.014h-1.703c-0.944,0-1.416,0.387-1.416,1.159v1.793L204.499,218.253z"/>
	<path fill="#4E87B2" d="M219.853,223.105c0,0.456-0.12,0.834-0.36,1.134c-0.264,0.337-0.618,0.504-1.062,0.504
		c-0.42,0-0.744-0.132-0.972-0.396c-0.096-0.108-0.27-0.432-0.522-0.972l-4.068-8.515v9.738h-1.674v-10.35
		c0-1.177,0.474-1.765,1.422-1.765c0.432,0,0.762,0.126,0.99,0.378c0.12,0.133,0.3,0.456,0.54,0.973l4.032,8.496v-9.738h1.674
		V223.105z"/>
	<path fill="#4E87B2" d="M229.285,219.128l-5.922,2.412v0.27c0,0.48,0.132,0.822,0.397,1.026c0.181,0.144,0.494,0.216,0.939,0.216
		h4.586v1.548h-4.872c-0.842,0-1.461-0.168-1.858-0.504c-0.505-0.42-0.758-1.068-0.758-1.944v-4.266
		c0-1.536,0.822-2.304,2.466-2.304h2.718c1.536,0,2.304,0.804,2.304,2.411V219.128z M227.701,218.253v-0.146
		c0-0.676-0.406-1.014-1.219-1.014h-1.703c-0.944,0-1.416,0.387-1.416,1.159v1.793L227.701,218.253z"/>
	<path fill="#4E87B2" d="M234.558,217.094h-1.98v7.506h-1.53v-12.204h1.53v3.187h1.98V217.094z"/>
	<path fill="#4E87B2" d="M247.086,215.582l-1.926,7.886c-0.204,0.827-0.63,1.24-1.278,1.24c-0.624,0-1.032-0.396-1.224-1.186
		l-1.386-5.763l-1.332,5.763c-0.18,0.79-0.601,1.186-1.26,1.186c-0.636,0-1.056-0.413-1.26-1.24l-1.908-7.886h1.512l1.728,7.056
		l1.44-5.977c0.18-0.768,0.552-1.151,1.116-1.151s0.936,0.384,1.116,1.151l1.422,5.977l1.728-7.056H247.086z"/>
	<path fill="#4E87B2" d="M255.941,222.35c0,0.792-0.252,1.393-0.756,1.8c-0.36,0.3-0.9,0.45-1.62,0.45h-2.682
		c-0.816,0-1.428-0.198-1.836-0.594c-0.408-0.396-0.612-0.948-0.612-1.656v-4.482c0-0.792,0.258-1.397,0.774-1.817
		c0.372-0.313,0.93-0.468,1.674-0.468h2.682c0.744,0,1.29,0.149,1.638,0.449c0.492,0.421,0.738,1.032,0.738,1.836V222.35z
		 M254.412,221.933v-3.647c0-0.409-0.121-0.722-0.363-0.938c-0.194-0.169-0.497-0.253-0.908-0.253h-1.851
		c-0.423,0-0.738,0.084-0.943,0.253c-0.254,0.204-0.381,0.518-0.381,0.938v3.629c0,0.397,0.127,0.698,0.381,0.902
		c0.193,0.157,0.472,0.235,0.834,0.235h2.069c0.351,0,0.617-0.078,0.799-0.235C254.291,222.612,254.412,222.317,254.412,221.933z"/>
	<path fill="#4E87B2" d="M261.432,217.094c-0.775,0-1.253,0.036-1.435,0.108c-0.4,0.156-0.6,0.554-0.6,1.19v6.207h-1.53v-6.606
		c0-1.607,0.804-2.411,2.412-2.411h1.152V217.094z"/>
	<path fill="#4E87B2" d="M264.365,224.6h-1.53v-12.204h1.53V224.6z M269.945,224.6h-1.908l-3.294-3.996
		c-0.18-0.216-0.27-0.42-0.27-0.612c0-0.216,0.102-0.443,0.306-0.684l3.114-3.726h1.854l-3.618,4.409L269.945,224.6z"/>
	<path fill="#4E87B2" d="M279.053,212.594l-6.84,12.006h-1.656l6.822-12.006H279.053z"/>
	<path fill="#4E87B2" d="M287.945,219.308l-7.812,3.726v-1.548l6.156-2.844l-6.156-2.862v-1.529l7.812,3.726V219.308z"/>
</g>
</svg>
