<?xml version="1.0" encoding="utf-8"?>
<!-- Generator: Adobe Illustrator 16.0.0, SVG Export Plug-In . SVG Version: 6.00 Build 0)  -->
<!DOCTYPE svg PUBLIC "-//W3C//DTD SVG 1.1//EN" "http://www.w3.org/Graphics/SVG/1.1/DTD/svg11.dtd">
<svg version="1.1" id="Layer_1" xmlns="http://www.w3.org/2000/svg" xmlns:xlink="http://www.w3.org/1999/xlink" x="0px" y="0px"
	 width="120px" height="30px" viewBox="0 0 120 30" enable-background="new 0 0 120 30" xml:space="preserve">
<g>
	<g>
		<g>
			<path fill="#FFFFFF" d="M83.064,7.798c0.545-0.172,1.078-0.343,1.595-0.511V5.461h5.374c1.052-0.372,1.932-0.693,2.597-0.939
				V3.867h-9.563v3.931H83.064z"/>
			<path fill="#FFFFFF" d="M73.5,9.446h4.104c1.854-0.53,3.631-1.069,5.289-1.594H71.906v3.119c0.533-0.133,1.064-0.267,1.594-0.404
				V9.446z"/>
			<path fill="#FFFFFF" d="M94.225,11.838H84.66V9.446h7.971V4.661c-0.48,0.224-1.068,0.494-1.748,0.8h0.154v2.392h-5.732
				c-1.281,0.522-2.652,1.062-4.076,1.594h1.838v3.985H95.82V6.259h-1.594v5.579H94.225z"/>
			<path fill="#FFFFFF" d="M73.5,12.029c-0.533,0.154-1.064,0.303-1.594,0.442v0.96H73.5V12.029z"/>
			<path fill="#FFFFFF" d="M58.661,11.839v1.594c3.043-0.316,6.284-0.888,9.524-1.594H58.661z"/>
			<path fill="#FFFFFF" d="M67.66,13.433h2.891v-0.618C69.568,13.052,68.6,13.262,67.66,13.433z"/>
			<path fill="#FFFFFF" d="M80.674,5.462V3.867H60.986v5.579h7.971v2.224c0.532-0.12,1.063-0.242,1.594-0.368V7.853h-7.97V5.462
				H80.674z"/>
		</g>
		<path fill="#FFFFFF" d="M94.786,2.682C94.646,2.613,94.111,2,94.111,2c-0.754,1.443-0.459,2.41,1.471,3.298
			c-0.497-0.294-1.861-1.872-1.419-2.759c-0.194,0.687,0.782,2.075,1.453,2.67C95.852,4.616,96.1,3.332,94.786,2.682z"/>
	</g>
	
		<rect x="20.306" y="3.306" transform="matrix(-0.7071 0.7071 -0.7071 -0.7071 52.3462 -2.3589)" fill="#FFFFFF" width="12.712" height="12.711"/>
	
		<rect x="41.654" y="3.307" transform="matrix(-0.7071 0.7071 -0.7071 -0.7071 88.79 -17.4542)" fill="#FFFFFF" width="12.712" height="12.712"/>
	
		<rect x="30.981" y="13.982" transform="matrix(-0.7071 0.7071 -0.7071 -0.7071 78.1195 8.3189)" fill="#FFFFFF" width="12.712" height="12.712"/>
	
		<rect x="9.632" y="13.982" transform="matrix(-0.7071 0.7071 -0.7071 -0.7071 41.6753 23.4127)" fill="#FFFFFF" width="12.712" height="12.712"/>
	<g>
		<path fill="#FFFFFF" stroke="#FFFFFF" stroke-miterlimit="10" d="M58.433,26.906l3.555-2.516v-3.009h-3.281v-0.491h3.281v-3.664
			h0.547V28.93h-0.547v-3.883l-3.555,2.516V26.906z M67.073,21.875l3.555-2.57v0.656l-3.555,2.57v5.797h2.844l0.164-3.281
			l0.547,0.328l-0.164,3.445h-3.938V17.227h0.548V21.875z"/>
		<path fill="#FFFFFF" stroke="#FFFFFF" stroke-miterlimit="10" d="M74.895,17.445v2.516h1.914v0.492h-1.914v8.477h-0.547v-7.875
			l-1.423,4.375h-0.547l1.586-4.977h-1.641v-0.492h2.022v-2.516H74.895z M75.604,21.492l1.203,2.789h-0.602l-1.203-2.789H75.604z
			 M79.159,22.859l2.133,2.625l-2.569,3.445h0.602l2.297-3.063l2.516,3.063h0.656l-2.844-3.445l2.844-3.883h-2.57l1.695-3.664
			l0.055-0.056h-6.891v0.492h0.547v7.108l-1.586,3.445h0.602l1.531-3.336v-7.219h4.977l-1.694,3.719h2.297l-2.133,2.953
			l-1.806-2.188h-0.657V22.859z"/>
		<path fill="#FFFFFF" stroke="#FFFFFF" stroke-miterlimit="10" d="M93.05,22.094v1.695h4.923v0.492H93.05v1.641h4.484v0.492H93.05
			v1.914h5.142v0.492H87.417v-0.492h5.086v-1.914h-4.267v-0.492h4.267v-1.641h-4.43l-0.767,1.859h-0.602l1.422-3.556h0.602
			l-0.438,1.203h4.211v-1.694H88.4h-0.438v-4.484h9.461v4.484H97.37H93.05L93.05,22.094z M88.511,19.578h8.367v-1.477h-8.367V19.578
			z M96.878,20.07h-8.367v1.531h8.367V20.07z"/>
	</g>
</g>
</svg>
