<?xml version="1.0" encoding="utf-8"?>
<!-- Generator: Adobe Illustrator 16.0.0, SVG Export Plug-In . SVG Version: 6.00 Build 0)  -->
<!DOCTYPE svg PUBLIC "-//W3C//DTD SVG 1.1//EN" "http://www.w3.org/Graphics/SVG/1.1/DTD/svg11.dtd">
<svg version="1.1" id="Layer_1" xmlns="http://www.w3.org/2000/svg" xmlns:xlink="http://www.w3.org/1999/xlink" x="0px" y="0px"
	 width="800px" height="240px" viewBox="0 0 800 240" enable-background="new 0 0 800 240" xml:space="preserve">
<g>
	<g>
		<polygon fill="#4E87B2" points="87.539,234.527 195.622,234.545 267.297,110.401 213.255,16.815 		"/>
		<polygon fill="#4E87B2" points="218.345,6.623 326.429,6.605 398.103,130.75 344.062,224.335 		"/>
		<polygon fill="#4E87B2" points="349.152,234.527 457.234,234.545 528.909,110.401 474.869,16.815 		"/>
	</g>
	<polygon fill="none" stroke="#FFFFFF" stroke-width="6" stroke-miterlimit="10" points="87.539,234.527 267.297,110.401 
		326.429,6.605 344.062,224.335 349.152,234.527 528.909,110.401 474.869,16.815 457.234,234.545 398.103,130.75 218.345,6.623 
		213.255,16.815 195.622,234.545 	"/>
</g>
<g>
	<defs>
		<path id="SVGID_1_" d="M546.893,188.637h80.364c0,0-41.872,20.412-81.177,24.969c40.865-2.324,81.177-20.705,81.177-20.705v-9.033
			h9.056v29.738h-92.058v-24.969H546.893z"/>
	</defs>
	<clipPath id="SVGID_2_">
		<use xlink:href="#SVGID_1_"  overflow="visible"/>
	</clipPath>
	
		<polyline clip-path="url(#SVGID_2_)" fill="none" stroke="#4E87B2" stroke-width="4.0599" stroke-linecap="square" stroke-miterlimit="10" points="
		632.76,197.365 632.76,211.576 624.64,211.576 604.341,211.576 604.341,191.275 624.64,191.275 624.64,201.426 604.341,201.426 
		596.221,201.426 575.922,201.426 575.922,211.576 	"/>
	<polygon clip-path="url(#SVGID_2_)" fill="#4E87B2" points="546.08,189.246 596.221,189.246 596.221,193.307 550.141,193.307 
		550.141,199.396 570.44,199.396 570.44,213.605 546.08,213.605 546.08,209.545 566.38,209.545 566.38,203.456 546.08,203.456 	"/>
</g>
<path fill-rule="evenodd" clip-rule="evenodd" fill="#4E87B2" d="M629.344,184.813c-0.076,0.636-0.188,1.267-0.235,1.907
	c-0.152,1.902,0.04,4.076,1.882,5.122c1.029,0.581,2.32,0.604,3.469,0.425c-1.452,0.23-2.883-0.965-3.594-2.121
	c-0.244-0.397-0.389-0.838-0.453-1.293c-0.063-0.438-0.082-0.907-0.375-1.263c1.694,2.066,4.304,5.081,7.256,3.415
	c-0.79,0.451-1.887-0.799-2.202-1.406c-0.421-0.801-0.442-1.832-1.19-2.436c-0.65-0.531-1.521-0.622-2.314-0.828
	C630.898,186.146,629.227,185.82,629.344,184.813L629.344,184.813z"/>
<g>
	
		<rect x="504.666" y="185.553" transform="matrix(0.707 -0.7072 0.7072 0.707 13.3754 419.0937)" fill="#4E87B2" width="15.7" height="15.701"/>
	
		<rect x="517.988" y="172.232" transform="matrix(0.7071 -0.7071 0.7071 0.7071 26.6771 424.5684)" fill="#4E87B2" width="15.7" height="15.7"/>
	
		<rect x="517.988" y="198.876" transform="matrix(0.7071 -0.7071 0.7071 0.7071 7.8373 432.3721)" fill="#4E87B2" width="15.7" height="15.7"/>
	
		<rect x="504.666" y="212.196" transform="matrix(0.707 -0.7072 0.7072 0.707 -5.4661 426.899)" fill="#4E87B2" width="15.7" height="15.701"/>
	
		<rect x="531.309" y="185.553" transform="matrix(0.7071 -0.7071 0.7071 0.7071 21.1595 437.8903)" opacity="0.2" fill="#4E87B2" width="15.701" height="15.7"/>
	
		<rect x="491.344" y="198.876" transform="matrix(0.7071 -0.7071 0.7071 0.7071 0.0245 413.5103)" opacity="0.2" fill="#4E87B2" width="15.701" height="15.699"/>
</g>
<g>
	<path fill="#4E87B2" d="M648.361,198.672h-6.341c-1.035,0-1.68,0.265-1.935,0.797c-0.153,0.307-0.229,1.034-0.229,2.182
		c0,0.6,0.196,1.063,0.587,1.387c0.324,0.256,0.853,0.384,1.585,0.384h2.629c1.123,0,2.021,0.306,2.695,0.919
		c0.673,0.613,1.009,1.472,1.009,2.58v2.707c0,1.175-0.346,2.072-1.039,2.693c-0.688,0.622-1.632,0.931-2.828,0.931h-7.116v-2.45
		h6.396c1.063,0,1.722-0.293,1.979-0.878c0.12-0.275,0.181-1.04,0.181-2.297c0-1.169-0.692-1.754-2.076-1.754h-2.64
		c-1.093,0-1.988-0.29-2.688-0.866c-0.768-0.628-1.152-1.477-1.152-2.546v-2.649c0-1.207,0.417-2.156,1.25-2.852
		c0.576-0.493,1.419-0.739,2.521-0.739h7.212V198.672L648.361,198.672z"/>
	<path fill="#4E87B2" d="M661.487,214.379c0,1.021-0.288,1.846-0.867,2.477c-0.58,0.63-1.372,0.945-2.375,0.945h-7.355v-2.225h6.763
		c0.734,0,1.22-0.219,1.459-0.662c0.138-0.289,0.205-0.842,0.205-1.66h-4.994c-1.043,0-1.854-0.28-2.433-0.842
		c-0.668-0.646-1-1.473-1-2.478v-9.477h2.171v8.864c0,1.157,0.574,1.736,1.726,1.736h3.965c0.377,0,0.565-0.221,0.565-0.665v-9.933
		h2.171V214.379z"/>
	<path fill="#4E87B2" d="M673.67,202.604h-5.78c-0.524,0-0.916,0.088-1.17,0.258c-0.356,0.242-0.535,0.567-0.535,0.98v0.513
		c0,0.895,0.587,1.342,1.761,1.342h2.861c0.833,0,1.52,0.28,2.055,0.841c0.536,0.561,0.805,1.26,0.805,2.095v1.608
		c0,0.803-0.272,1.517-0.814,2.146c-0.322,0.375-0.664,0.621-1.02,0.741c-0.29,0.086-0.714,0.126-1.272,0.126h-6.546v-2.195h5.954
		c0.609,0,1.018-0.17,1.222-0.512c0.152-0.236,0.228-0.682,0.228-1.326c0-0.887-0.477-1.33-1.43-1.33h-2.707
		c-0.922,0-1.68-0.246-2.273-0.74c-0.663-0.527-0.993-1.233-0.993-2.119v-1.711c0-0.953,0.381-1.729,1.145-2.323
		c0.459-0.358,1.172-0.536,2.14-0.536h6.368v2.143H673.67z"/>
	<path fill="#4E87B2" d="M681.201,202.604h-2.809v10.65h-2.169v-17.314h2.169v4.519h2.809V202.604z"/>
	<path fill="#4E87B2" d="M693.639,205.49l-8.404,3.424v0.385c0,0.68,0.188,1.166,0.564,1.455c0.255,0.204,0.699,0.305,1.331,0.305
		h6.505v2.195h-6.91c-1.194,0-2.074-0.236-2.639-0.714c-0.716-0.596-1.072-1.516-1.072-2.759v-6.051c0-2.18,1.166-3.27,3.496-3.27
		h3.857c2.181,0,3.271,1.141,3.271,3.422L693.639,205.49L693.639,205.49z M691.391,204.249v-0.204c0-0.96-0.576-1.441-1.729-1.441
		h-2.415c-1.339,0-2.012,0.551-2.012,1.646v2.546L691.391,204.249z"/>
	<path fill="#4E87B2" d="M711.668,213.254h-2.169v-8.908c0-0.871-0.311-1.408-0.926-1.612c-0.24-0.085-0.925-0.128-2.054-0.128
		c-0.497,0-0.901,0.181-1.209,0.539c-0.205,0.24-0.308,0.658-0.308,1.253v8.859h-2.172v-8.859c0-0.868-0.263-1.417-0.791-1.637
		c-0.273-0.103-0.944-0.155-2.018-0.155c-1.141,0-1.71,0.58-1.71,1.743v8.908h-2.171v-9.425c0-2.246,1.063-3.371,3.191-3.371h1.993
		c0.646,0,1.159,0.094,1.532,0.281c0.375,0.188,0.732,0.535,1.071,1.046c0.613-0.886,1.492-1.327,2.631-1.327h1.967
		c0.972,0,1.736,0.298,2.3,0.895c0.561,0.596,0.841,1.422,0.841,2.477V213.254z"/>
	<path fill="#4E87B2" d="M723.67,202.604h-5.778c-0.525,0-0.914,0.088-1.17,0.258c-0.355,0.242-0.534,0.567-0.534,0.98v0.513
		c0,0.895,0.588,1.342,1.76,1.342h2.86c0.836,0,1.521,0.28,2.058,0.841c0.535,0.561,0.803,1.26,0.803,2.095v1.608
		c0,0.803-0.272,1.517-0.813,2.146c-0.323,0.375-0.664,0.621-1.02,0.741c-0.289,0.086-0.713,0.126-1.272,0.126h-6.547v-2.195h5.956
		c0.608,0,1.015-0.17,1.221-0.512c0.151-0.236,0.229-0.682,0.229-1.326c0-0.887-0.478-1.33-1.431-1.33h-2.707
		c-0.922,0-1.68-0.246-2.274-0.74c-0.664-0.527-0.993-1.233-0.993-2.119v-1.711c0-0.953,0.381-1.729,1.143-2.323
		c0.462-0.358,1.175-0.536,2.144-0.536h6.368V202.604L723.67,202.604z"/>
</g>
<g>
	<path fill="#4E87B2" d="M547.578,228.567h-1.612v-11.083h1.612V228.567z"/>
	<path fill="#4E87B2" d="M559.442,228.567h-1.412v-5.796c0-0.566-0.201-0.916-0.603-1.051c-0.155-0.055-0.602-0.082-1.337-0.082
		c-0.323,0-0.586,0.117-0.786,0.35c-0.134,0.156-0.199,0.428-0.199,0.816v5.765h-1.413v-5.765c0-0.566-0.173-0.922-0.516-1.066
		c-0.178-0.066-0.614-0.1-1.313-0.1c-0.742,0-1.113,0.377-1.113,1.133v5.798h-1.412v-6.132c0-1.463,0.692-2.195,2.077-2.195h1.296
		c0.421,0,0.754,0.061,0.997,0.184c0.244,0.121,0.478,0.35,0.698,0.682c0.397-0.576,0.97-0.865,1.712-0.865h1.279
		c0.632,0,1.13,0.195,1.496,0.582c0.364,0.389,0.548,0.926,0.548,1.613V228.567z"/>
	<path fill="#4E87B2" d="M568.134,226.49c0,0.621-0.181,1.122-0.54,1.503c-0.359,0.383-0.851,0.574-1.471,0.574h-2.726
		c-0.653,0-1.176-0.166-1.563-0.5c-0.422-0.354-0.632-0.853-0.632-1.495v-1.496c0-0.654,0.188-1.164,0.563-1.529
		c0.378-0.367,0.894-0.549,1.547-0.549h3.405c-0.011-0.471-0.078-0.801-0.199-0.992c-0.156-0.248-0.457-0.371-0.903-0.371h-4.413
		v-1.395h4.607c1.549,0,2.321,0.703,2.321,2.109v4.141H568.134z M566.721,226.207v-1.594c0-0.178-0.11-0.268-0.335-0.268h-2.747
		c-0.682,0-1.021,0.346-1.021,1.031v0.814c0,0.289,0.101,0.518,0.302,0.689s0.447,0.258,0.737,0.258h2.061
		C566.386,227.137,566.721,226.828,566.721,226.207z"/>
	<path fill="#4E87B2" d="M576.842,229.298c0,1.484-0.805,2.227-2.415,2.227h-4.515v-1.395h4.341c0.508,0,0.845-0.146,1.011-0.438
		c0.11-0.203,0.165-0.578,0.165-1.125h-3.149c-0.788,0-1.38-0.186-1.774-0.557c-0.394-0.371-0.592-0.89-0.592-1.556v-3.889
		c0-0.797,0.172-1.385,0.515-1.762c0.345-0.377,0.914-0.564,1.712-0.564h2.377c0.81,0,1.398,0.164,1.771,0.49
		c0.371,0.326,0.557,0.889,0.557,1.686v6.882H576.842z M575.429,226.82v-3.949c0-0.422-0.077-0.711-0.231-0.867
		c-0.243-0.246-0.564-0.367-0.964-0.367h-1.778c-0.753,0-1.13,0.373-1.13,1.117v3.268c0,0.744,0.416,1.115,1.247,1.115h2.542
		C575.324,227.137,575.429,227.033,575.429,226.82z"/>
	<path fill="#4E87B2" d="M580.266,218.031c0,0.256-0.095,0.477-0.282,0.666c-0.188,0.188-0.41,0.283-0.664,0.283
		c-0.255,0-0.475-0.094-0.657-0.275s-0.273-0.4-0.273-0.656c0-0.266,0.088-0.492,0.267-0.682c0.177-0.188,0.397-0.281,0.665-0.281
		c0.266,0,0.489,0.09,0.673,0.273C580.174,217.541,580.266,217.766,580.266,218.031z M580.049,228.567h-1.412v-8.325h1.412V228.567z
		"/>
	<path fill="#4E87B2" d="M588.657,228.567h-1.413v-5.913c0-0.678-0.4-1.018-1.201-1.018h-1.602c-0.813,0-1.22,0.34-1.22,1.018v5.913
		h-1.411v-6.298c0-1.352,0.726-2.027,2.177-2.027h2.51c1.439,0,2.16,0.676,2.16,2.027V228.567z"/>
	<path fill="#4E87B2" d="M597.365,229.298c0,1.484-0.805,2.227-2.415,2.227h-4.515v-1.395h4.341c0.508,0,0.845-0.146,1.011-0.438
		c0.11-0.203,0.165-0.578,0.165-1.125h-3.15c-0.788,0-1.38-0.186-1.773-0.557c-0.395-0.371-0.593-0.89-0.593-1.556v-3.889
		c0-0.797,0.173-1.385,0.516-1.762c0.344-0.377,0.914-0.564,1.712-0.564h2.377c0.809,0,1.398,0.164,1.771,0.49
		c0.37,0.326,0.557,0.889,0.557,1.686v6.882H597.365z M595.952,226.82v-3.949c0-0.422-0.077-0.711-0.232-0.867
		c-0.243-0.246-0.563-0.367-0.964-0.367h-1.777c-0.754,0-1.131,0.373-1.131,1.117v3.268c0,0.744,0.416,1.115,1.247,1.115h2.542
		C595.848,227.137,595.952,227.033,595.952,226.82z"/>
	<path fill="#4E87B2" d="M610.36,226.025c0,0.773-0.208,1.394-0.623,1.853c-0.416,0.459-1.006,0.689-1.771,0.689h-5.634v-11.085
		h5.601c1.617,0,2.427,0.832,2.427,2.494V226.025L610.36,226.025z M608.781,225.52v-5.123c0-0.879-0.444-1.318-1.334-1.318h-3.501
		v7.895h3.501C608.337,226.971,608.781,226.488,608.781,225.52z"/>
	<path fill="#4E87B2" d="M619.052,226.49c0,0.621-0.181,1.122-0.54,1.503c-0.359,0.383-0.851,0.574-1.471,0.574h-2.726
		c-0.653,0-1.176-0.166-1.563-0.5c-0.422-0.354-0.632-0.853-0.632-1.495v-1.496c0-0.654,0.188-1.164,0.564-1.529
		c0.377-0.367,0.893-0.549,1.546-0.549h3.405c-0.011-0.471-0.078-0.801-0.199-0.992c-0.156-0.248-0.457-0.371-0.903-0.371h-4.413
		v-1.395h4.607c1.549,0,2.321,0.703,2.321,2.109v4.141H619.052z M617.639,226.207v-1.594c0-0.178-0.11-0.268-0.335-0.268h-2.747
		c-0.682,0-1.021,0.346-1.021,1.031v0.814c0,0.289,0.101,0.518,0.302,0.689s0.447,0.258,0.737,0.258h2.061
		C617.304,227.137,617.639,226.828,617.639,226.207z"/>
	<path fill="#4E87B2" d="M624.087,221.637h-1.828v6.931h-1.412v-11.267h1.412v2.941h1.828V221.637z"/>
	<path fill="#4E87B2" d="M632.214,226.49c0,0.621-0.181,1.122-0.54,1.503c-0.359,0.383-0.851,0.574-1.471,0.574h-2.727
		c-0.652,0-1.175-0.166-1.562-0.5c-0.422-0.354-0.632-0.853-0.632-1.495v-1.496c0-0.654,0.188-1.164,0.563-1.529
		c0.377-0.367,0.894-0.549,1.546-0.549h3.406c-0.011-0.471-0.078-0.801-0.2-0.992c-0.155-0.248-0.456-0.371-0.902-0.371h-4.413
		v-1.395h4.607c1.549,0,2.321,0.703,2.321,2.109v4.141H632.214z M630.801,226.207v-1.594c0-0.178-0.11-0.268-0.335-0.268h-2.747
		c-0.682,0-1.021,0.346-1.021,1.031v0.814c0,0.289,0.101,0.518,0.302,0.689s0.447,0.258,0.737,0.258h2.061
		C630.466,227.137,630.801,226.828,630.801,226.207z"/>
	<path fill="#4E87B2" d="M640.987,226.34c0,1.485-0.727,2.228-2.177,2.228H636.3c-0.643,0-1.188-0.18-1.637-0.539
		c-0.448-0.359-0.673-0.94-0.673-1.737v-8.99h1.412v2.941h3.417c0.667,0,1.193,0.199,1.584,0.598
		c0.389,0.398,0.583,0.932,0.583,1.596L640.987,226.34L640.987,226.34z M639.575,225.992v-3.174c0-0.766-0.393-1.146-1.173-1.146
		h-2.646c-0.234,0-0.353,0.111-0.353,0.332v4.072c0,0.709,0.419,1.063,1.257,1.063h1.742c0.436,0,0.754-0.105,0.954-0.316
		C639.502,226.668,639.575,226.391,639.575,225.992z"/>
	<path fill="#4E87B2" d="M649.679,226.49c0,0.621-0.181,1.122-0.54,1.503c-0.359,0.383-0.851,0.574-1.471,0.574h-2.726
		c-0.653,0-1.175-0.166-1.563-0.5c-0.422-0.354-0.632-0.853-0.632-1.495v-1.496c0-0.654,0.188-1.164,0.564-1.529
		c0.377-0.367,0.893-0.549,1.546-0.549h3.405c-0.011-0.471-0.077-0.801-0.199-0.992c-0.156-0.248-0.457-0.371-0.903-0.371h-4.413
		v-1.395h4.608c1.548,0,2.32,0.703,2.32,2.109v4.141H649.679z M648.266,226.207v-1.594c0-0.178-0.11-0.268-0.335-0.268h-2.747
		c-0.682,0-1.021,0.346-1.021,1.031v0.814c0,0.289,0.101,0.518,0.302,0.689s0.447,0.258,0.737,0.258h2.061
		C647.931,227.137,648.266,226.828,648.266,226.207z"/>
	<path fill="#4E87B2" d="M657.605,221.637h-3.761c-0.342,0-0.596,0.057-0.762,0.168c-0.231,0.156-0.348,0.369-0.348,0.637v0.336
		c0,0.582,0.382,0.871,1.146,0.871h1.861c0.543,0,0.989,0.184,1.338,0.549s0.523,0.82,0.523,1.363v1.047
		c0,0.52-0.178,0.985-0.53,1.396c-0.21,0.244-0.432,0.404-0.663,0.482c-0.188,0.057-0.464,0.082-0.828,0.082h-4.26v-1.429h3.875
		c0.396,0,0.662-0.109,0.795-0.334c0.099-0.154,0.148-0.441,0.148-0.863c0-0.576-0.311-0.863-0.931-0.863h-1.762
		c-0.6,0-1.093-0.162-1.479-0.482c-0.432-0.344-0.646-0.803-0.646-1.379v-1.113c0-0.619,0.248-1.125,0.744-1.512
		c0.3-0.232,0.764-0.35,1.394-0.35h4.144v1.395H657.605z"/>
	<path fill="#4E87B2" d="M666.163,223.516l-5.468,2.227v0.25c0,0.443,0.122,0.76,0.367,0.947c0.166,0.133,0.454,0.199,0.865,0.199
		h4.234v1.429h-4.498c-0.777,0-1.349-0.154-1.716-0.465c-0.466-0.387-0.699-0.985-0.699-1.794v-3.939
		c0-1.418,0.759-2.127,2.276-2.127h2.51c1.418,0,2.127,0.744,2.127,2.227L666.163,223.516L666.163,223.516z M664.7,222.707v-0.133
		c0-0.625-0.375-0.938-1.125-0.938h-1.572c-0.871,0-1.308,0.357-1.308,1.07v1.656L664.7,222.707z"/>
	<path fill="#4E87B2" d="M678.875,227.188c0,0.421-0.111,0.771-0.332,1.048c-0.244,0.311-0.571,0.465-0.979,0.465
		c-0.39,0-0.688-0.123-0.897-0.365c-0.089-0.1-0.25-0.398-0.481-0.896l-3.757-7.86v8.989h-1.545v-9.556
		c0-1.086,0.438-1.629,1.313-1.629c0.398,0,0.704,0.117,0.914,0.35c0.109,0.123,0.276,0.422,0.499,0.896l3.722,7.846v-8.99h1.546
		v9.703H678.875z"/>
	<path fill="#4E87B2" d="M687.583,223.516l-5.468,2.227v0.25c0,0.443,0.122,0.76,0.367,0.947c0.166,0.133,0.455,0.199,0.865,0.199
		h4.234v1.429h-4.498c-0.777,0-1.349-0.154-1.716-0.465c-0.466-0.387-0.699-0.985-0.699-1.794v-3.939
		c0-1.418,0.759-2.127,2.276-2.127h2.51c1.418,0,2.127,0.744,2.127,2.227L687.583,223.516L687.583,223.516z M686.12,222.707v-0.133
		c0-0.625-0.375-0.938-1.125-0.938h-1.572c-0.871,0-1.308,0.357-1.308,1.07v1.656L686.12,222.707z"/>
	<path fill="#4E87B2" d="M692.451,221.637h-1.828v6.931h-1.412v-11.267h1.412v2.941h1.828V221.637z"/>
	<path fill="#4E87B2" d="M704.018,220.242l-1.777,7.28c-0.188,0.764-0.581,1.145-1.18,1.145c-0.576,0-0.953-0.363-1.131-1.094
		l-1.278-5.321l-1.23,5.321c-0.166,0.729-0.554,1.094-1.163,1.094c-0.587,0-0.975-0.381-1.163-1.145l-1.762-7.28h1.396l1.596,6.514
		l1.33-5.518c0.166-0.709,0.509-1.063,1.029-1.063c0.521,0,0.864,0.354,1.03,1.063l1.313,5.518l1.596-6.514H704.018z"/>
	<path fill="#4E87B2" d="M712.193,226.49c0,0.73-0.232,1.284-0.698,1.661c-0.332,0.277-0.831,0.416-1.495,0.416h-2.477
		c-0.753,0-1.318-0.182-1.695-0.547c-0.376-0.367-0.564-0.876-0.564-1.53v-4.137c0-0.732,0.238-1.291,0.716-1.68
		c0.343-0.287,0.857-0.432,1.545-0.432h2.477c0.688,0,1.19,0.139,1.512,0.416c0.454,0.389,0.683,0.953,0.683,1.695v4.137H712.193z
		 M710.78,226.105v-3.367c0-0.379-0.111-0.668-0.335-0.867c-0.18-0.156-0.458-0.234-0.838-0.234h-1.708
		c-0.393,0-0.683,0.078-0.871,0.234c-0.235,0.189-0.354,0.479-0.354,0.867v3.35c0,0.367,0.117,0.645,0.354,0.834
		c0.179,0.145,0.435,0.217,0.771,0.217h1.91c0.323,0,0.569-0.072,0.736-0.217C710.669,226.732,710.78,226.461,710.78,226.105z"/>
	<path fill="#4E87B2" d="M717.262,221.637c-0.716,0-1.156,0.035-1.323,0.102c-0.369,0.143-0.555,0.51-0.555,1.098v5.731h-1.412
		v-6.101c0-1.482,0.742-2.227,2.228-2.227h1.063V221.637z"/>
	<path fill="#4E87B2" d="M719.97,228.567h-1.412v-11.267h1.412V228.567z M725.122,228.567h-1.762l-3.041-3.688
		c-0.167-0.201-0.25-0.389-0.25-0.564c0-0.199,0.095-0.41,0.282-0.631l2.875-3.441h1.712l-3.341,4.072L725.122,228.567z"/>
</g>
</svg>
