<?xml version="1.0" encoding="utf-8"?>
<!-- Generator: Adobe Illustrator 16.0.0, SVG Export Plug-In . SVG Version: 6.00 Build 0)  -->
<!DOCTYPE svg PUBLIC "-//W3C//DTD SVG 1.1//EN" "http://www.w3.org/Graphics/SVG/1.1/DTD/svg11.dtd">
<svg version="1.1" id="Layer_1" xmlns="http://www.w3.org/2000/svg" xmlns:xlink="http://www.w3.org/1999/xlink" x="0px" y="0px"
	 width="800px" height="240px" viewBox="0 0 800 240" enable-background="new 0 0 800 240" xml:space="preserve">
<g>
	<g>
		<polygon fill="#4E87B2" points="723.909,233.527 615.826,233.545 544.151,109.401 598.193,15.814 		"/>
		<polygon fill="#4E87B2" points="593.104,5.623 485.02,5.605 413.345,129.75 467.387,223.335 		"/>
		<polygon fill="#4E87B2" points="462.297,233.527 354.214,233.545 282.539,109.401 336.579,15.814 		"/>
	</g>
	<polygon fill="none" stroke="#FFFFFF" stroke-width="6" stroke-miterlimit="10" points="723.909,233.527 544.151,109.401 
		485.02,5.605 467.387,223.335 462.297,233.527 282.539,109.401 336.579,15.814 354.214,233.545 413.345,129.75 593.104,5.623 
		598.193,15.814 615.826,233.545 	"/>
</g>
<g>
	<defs>
		<path id="SVGID_1_" d="M153.931,189.657h80.364c0,0-41.872,20.412-81.177,24.969c40.865-2.324,81.177-20.705,81.177-20.705v-9.033
			h9.056v29.738h-92.058v-24.969H153.931z"/>
	</defs>
	<clipPath id="SVGID_2_">
		<use xlink:href="#SVGID_1_"  overflow="visible"/>
	</clipPath>
	
		<polyline clip-path="url(#SVGID_2_)" fill="none" stroke="#4E87B2" stroke-width="4.0599" stroke-linecap="square" stroke-miterlimit="10" points="
		239.798,198.386 239.798,212.597 231.678,212.597 211.379,212.597 211.379,192.296 231.678,192.296 231.678,202.446 
		211.379,202.446 203.259,202.446 182.96,202.446 182.96,212.597 	"/>
	<polygon clip-path="url(#SVGID_2_)" fill="#4E87B2" points="153.118,190.267 203.259,190.267 203.259,194.327 157.179,194.327 
		157.179,200.416 177.479,200.416 177.479,214.626 153.118,214.626 153.118,210.565 173.418,210.565 173.418,204.477 
		153.118,204.477 	"/>
</g>
<path fill-rule="evenodd" clip-rule="evenodd" fill="#4E87B2" d="M236.382,185.834c-0.076,0.636-0.188,1.267-0.235,1.907
	c-0.152,1.902,0.04,4.076,1.882,5.122c1.029,0.581,2.32,0.604,3.469,0.425c-1.452,0.23-2.883-0.965-3.594-2.121
	c-0.244-0.397-0.389-0.838-0.453-1.293c-0.063-0.438-0.082-0.907-0.375-1.263c1.694,2.066,4.304,5.081,7.256,3.415
	c-0.79,0.451-1.887-0.799-2.202-1.406c-0.421-0.801-0.442-1.832-1.19-2.436c-0.65-0.531-1.521-0.622-2.314-0.828
	C237.937,187.167,236.265,186.841,236.382,185.834L236.382,185.834z"/>
<g>
	
		<rect x="111.704" y="186.573" transform="matrix(0.707 -0.7072 0.7072 0.707 -102.4666 141.5022)" fill="#4E87B2" width="15.7" height="15.701"/>
	
		<rect x="125.026" y="173.253" transform="matrix(0.7071 -0.7071 0.7071 0.7071 -89.1404 147.0012)" fill="#4E87B2" width="15.7" height="15.7"/>
	
		<rect x="125.026" y="199.896" transform="matrix(0.7071 -0.7071 0.7071 0.7071 -107.9802 154.8049)" fill="#4E87B2" width="15.7" height="15.7"/>
	
		<rect x="111.704" y="213.217" transform="matrix(0.707 -0.7072 0.7072 0.707 -121.3081 149.3076)" fill="#4E87B2" width="15.7" height="15.701"/>
	
		<rect x="138.348" y="186.574" transform="matrix(0.7071 -0.7071 0.7071 0.7071 -94.6579 160.3232)" opacity="0.2" fill="#4E87B2" width="15.701" height="15.7"/>
	
		<rect x="98.382" y="199.896" transform="matrix(0.7071 -0.7071 0.7071 0.7071 -115.7808 135.9553)" opacity="0.2" fill="#4E87B2" width="15.701" height="15.699"/>
</g>
<g>
	<path fill="#4E87B2" d="M255.399,199.692h-6.341c-1.035,0-1.68,0.265-1.935,0.797c-0.153,0.307-0.229,1.034-0.229,2.182
		c0,0.6,0.196,1.063,0.587,1.387c0.324,0.256,0.853,0.384,1.585,0.384h2.629c1.123,0,2.021,0.306,2.695,0.919
		c0.673,0.613,1.009,1.472,1.009,2.58v2.707c0,1.175-0.346,2.072-1.039,2.693c-0.688,0.622-1.632,0.931-2.828,0.931h-7.116v-2.45
		h6.396c1.063,0,1.722-0.293,1.979-0.878c0.12-0.275,0.181-1.04,0.181-2.297c0-1.169-0.692-1.754-2.076-1.754h-2.64
		c-1.093,0-1.988-0.29-2.688-0.866c-0.768-0.628-1.152-1.477-1.152-2.546v-2.649c0-1.207,0.417-2.156,1.25-2.852
		c0.576-0.493,1.419-0.739,2.521-0.739h7.212V199.692L255.399,199.692z"/>
	<path fill="#4E87B2" d="M268.525,215.399c0,1.021-0.288,1.846-0.867,2.477c-0.58,0.63-1.372,0.945-2.375,0.945h-7.355v-2.225h6.763
		c0.734,0,1.22-0.219,1.459-0.662c0.138-0.289,0.205-0.842,0.205-1.66h-4.994c-1.043,0-1.854-0.28-2.433-0.842
		c-0.668-0.646-1-1.473-1-2.478v-9.477h2.171v8.864c0,1.157,0.574,1.736,1.726,1.736h3.965c0.377,0,0.565-0.221,0.565-0.665v-9.933
		h2.171V215.399z"/>
	<path fill="#4E87B2" d="M280.708,203.624h-5.78c-0.524,0-0.916,0.088-1.17,0.258c-0.356,0.242-0.535,0.567-0.535,0.98v0.513
		c0,0.895,0.587,1.342,1.761,1.342h2.861c0.833,0,1.52,0.28,2.055,0.841c0.536,0.561,0.805,1.26,0.805,2.095v1.608
		c0,0.803-0.272,1.517-0.814,2.146c-0.322,0.375-0.664,0.621-1.02,0.741c-0.29,0.086-0.714,0.126-1.272,0.126h-6.546v-2.195h5.954
		c0.609,0,1.018-0.17,1.222-0.512c0.152-0.236,0.228-0.682,0.228-1.326c0-0.887-0.477-1.33-1.43-1.33h-2.707
		c-0.922,0-1.68-0.246-2.273-0.74c-0.663-0.527-0.993-1.233-0.993-2.119v-1.711c0-0.953,0.381-1.729,1.145-2.323
		c0.459-0.358,1.172-0.536,2.14-0.536h6.368v2.143H280.708z"/>
	<path fill="#4E87B2" d="M288.239,203.624h-2.809v10.65h-2.169V196.96h2.169v4.519h2.809V203.624z"/>
	<path fill="#4E87B2" d="M300.677,206.511l-8.404,3.424v0.385c0,0.68,0.188,1.166,0.564,1.455c0.255,0.204,0.699,0.305,1.331,0.305
		h6.505v2.195h-6.91c-1.194,0-2.074-0.236-2.639-0.714c-0.716-0.596-1.072-1.516-1.072-2.759v-6.051c0-2.18,1.166-3.27,3.496-3.27
		h3.857c2.181,0,3.271,1.141,3.271,3.422L300.677,206.511L300.677,206.511z M298.429,205.27v-0.204c0-0.96-0.576-1.441-1.729-1.441
		h-2.415c-1.339,0-2.012,0.551-2.012,1.646v2.546L298.429,205.27z"/>
	<path fill="#4E87B2" d="M318.706,214.274h-2.169v-8.908c0-0.871-0.311-1.408-0.926-1.612c-0.24-0.085-0.925-0.128-2.054-0.128
		c-0.497,0-0.901,0.181-1.209,0.539c-0.205,0.24-0.308,0.658-0.308,1.253v8.859h-2.172v-8.859c0-0.868-0.263-1.417-0.791-1.637
		c-0.273-0.103-0.944-0.155-2.018-0.155c-1.141,0-1.71,0.58-1.71,1.743v8.908h-2.171v-9.425c0-2.246,1.063-3.371,3.191-3.371h1.993
		c0.646,0,1.159,0.094,1.532,0.281c0.375,0.188,0.732,0.535,1.071,1.046c0.613-0.886,1.492-1.327,2.631-1.327h1.967
		c0.972,0,1.736,0.298,2.3,0.895c0.561,0.596,0.841,1.422,0.841,2.477V214.274z"/>
	<path fill="#4E87B2" d="M330.708,203.624h-5.778c-0.525,0-0.914,0.088-1.17,0.258c-0.355,0.242-0.534,0.567-0.534,0.98v0.513
		c0,0.895,0.588,1.342,1.76,1.342h2.86c0.836,0,1.521,0.28,2.058,0.841c0.535,0.561,0.803,1.26,0.803,2.095v1.608
		c0,0.803-0.272,1.517-0.813,2.146c-0.323,0.375-0.664,0.621-1.02,0.741c-0.289,0.086-0.713,0.126-1.272,0.126h-6.547v-2.195h5.956
		c0.608,0,1.015-0.17,1.221-0.512c0.151-0.236,0.229-0.682,0.229-1.326c0-0.887-0.478-1.33-1.431-1.33h-2.707
		c-0.922,0-1.68-0.246-2.274-0.74c-0.664-0.527-0.993-1.233-0.993-2.119v-1.711c0-0.953,0.381-1.729,1.143-2.323
		c0.462-0.358,1.175-0.536,2.144-0.536h6.368V203.624L330.708,203.624z"/>
</g>
<g>
	<path fill="#4E87B2" d="M154.616,229.588h-1.612v-11.083h1.612V229.588z"/>
	<path fill="#4E87B2" d="M166.48,229.588h-1.412v-5.796c0-0.566-0.201-0.916-0.603-1.051c-0.155-0.055-0.602-0.082-1.337-0.082
		c-0.323,0-0.586,0.117-0.786,0.35c-0.134,0.156-0.199,0.428-0.199,0.816v5.765h-1.413v-5.765c0-0.566-0.173-0.922-0.516-1.066
		c-0.178-0.066-0.614-0.1-1.313-0.1c-0.742,0-1.113,0.377-1.113,1.133v5.798h-1.412v-6.132c0-1.463,0.692-2.195,2.077-2.195h1.296
		c0.421,0,0.754,0.061,0.997,0.184c0.244,0.121,0.478,0.35,0.698,0.682c0.397-0.576,0.97-0.865,1.712-0.865h1.279
		c0.632,0,1.13,0.195,1.496,0.582c0.364,0.389,0.548,0.926,0.548,1.613V229.588z"/>
	<path fill="#4E87B2" d="M175.172,227.511c0,0.621-0.181,1.122-0.54,1.503c-0.359,0.383-0.851,0.574-1.471,0.574h-2.726
		c-0.653,0-1.176-0.166-1.563-0.5c-0.422-0.354-0.632-0.853-0.632-1.495v-1.496c0-0.654,0.188-1.164,0.563-1.529
		c0.378-0.367,0.894-0.549,1.547-0.549h3.405c-0.011-0.471-0.078-0.801-0.199-0.992c-0.156-0.248-0.457-0.371-0.903-0.371h-4.413
		v-1.395h4.607c1.549,0,2.321,0.703,2.321,2.109v4.141H175.172z M173.759,227.228v-1.594c0-0.178-0.11-0.268-0.335-0.268h-2.747
		c-0.682,0-1.021,0.346-1.021,1.031v0.814c0,0.289,0.101,0.518,0.302,0.689s0.447,0.258,0.737,0.258h2.061
		C173.424,228.157,173.759,227.849,173.759,227.228z"/>
	<path fill="#4E87B2" d="M183.88,230.318c0,1.484-0.805,2.227-2.415,2.227h-4.515v-1.395h4.341c0.508,0,0.845-0.146,1.011-0.438
		c0.11-0.203,0.165-0.578,0.165-1.125h-3.149c-0.788,0-1.38-0.186-1.774-0.557c-0.394-0.371-0.592-0.89-0.592-1.556v-3.889
		c0-0.797,0.172-1.385,0.515-1.762c0.345-0.377,0.914-0.564,1.712-0.564h2.377c0.81,0,1.398,0.164,1.771,0.49
		c0.371,0.326,0.557,0.889,0.557,1.686v6.882H183.88z M182.467,227.841v-3.949c0-0.422-0.077-0.711-0.231-0.867
		c-0.243-0.246-0.564-0.367-0.964-0.367h-1.778c-0.753,0-1.13,0.373-1.13,1.117v3.268c0,0.744,0.416,1.115,1.247,1.115h2.542
		C182.362,228.157,182.467,228.054,182.467,227.841z"/>
	<path fill="#4E87B2" d="M187.304,219.052c0,0.256-0.095,0.477-0.282,0.666c-0.188,0.188-0.41,0.283-0.664,0.283
		c-0.255,0-0.475-0.094-0.657-0.275s-0.273-0.4-0.273-0.656c0-0.266,0.088-0.492,0.267-0.682c0.177-0.188,0.397-0.281,0.665-0.281
		c0.266,0,0.489,0.09,0.673,0.273C187.212,218.562,187.304,218.786,187.304,219.052z M187.087,229.588h-1.412v-8.325h1.412V229.588z
		"/>
	<path fill="#4E87B2" d="M195.695,229.588h-1.413v-5.913c0-0.678-0.4-1.018-1.201-1.018h-1.602c-0.813,0-1.22,0.34-1.22,1.018v5.913
		h-1.411v-6.298c0-1.352,0.726-2.027,2.177-2.027h2.51c1.439,0,2.16,0.676,2.16,2.027V229.588z"/>
	<path fill="#4E87B2" d="M204.403,230.318c0,1.484-0.805,2.227-2.415,2.227h-4.515v-1.395h4.341c0.508,0,0.845-0.146,1.011-0.438
		c0.11-0.203,0.165-0.578,0.165-1.125h-3.15c-0.788,0-1.38-0.186-1.773-0.557c-0.395-0.371-0.593-0.89-0.593-1.556v-3.889
		c0-0.797,0.173-1.385,0.516-1.762c0.344-0.377,0.914-0.564,1.712-0.564h2.377c0.809,0,1.398,0.164,1.771,0.49
		c0.37,0.326,0.557,0.889,0.557,1.686v6.882H204.403z M202.99,227.841v-3.949c0-0.422-0.077-0.711-0.232-0.867
		c-0.243-0.246-0.563-0.367-0.964-0.367h-1.777c-0.754,0-1.131,0.373-1.131,1.117v3.268c0,0.744,0.416,1.115,1.247,1.115h2.542
		C202.886,228.157,202.99,228.054,202.99,227.841z"/>
	<path fill="#4E87B2" d="M217.398,227.046c0,0.773-0.208,1.394-0.623,1.853c-0.416,0.459-1.006,0.689-1.771,0.689h-5.634v-11.085
		h5.601c1.617,0,2.427,0.832,2.427,2.494V227.046L217.398,227.046z M215.819,226.54v-5.123c0-0.879-0.444-1.318-1.334-1.318h-3.501
		v7.895h3.501C215.375,227.991,215.819,227.509,215.819,226.54z"/>
	<path fill="#4E87B2" d="M226.09,227.511c0,0.621-0.181,1.122-0.54,1.503c-0.359,0.383-0.851,0.574-1.471,0.574h-2.726
		c-0.653,0-1.176-0.166-1.563-0.5c-0.422-0.354-0.632-0.853-0.632-1.495v-1.496c0-0.654,0.188-1.164,0.564-1.529
		c0.377-0.367,0.893-0.549,1.546-0.549h3.405c-0.011-0.471-0.078-0.801-0.199-0.992c-0.156-0.248-0.457-0.371-0.903-0.371h-4.413
		v-1.395h4.607c1.549,0,2.321,0.703,2.321,2.109v4.141H226.09z M224.677,227.228v-1.594c0-0.178-0.11-0.268-0.335-0.268h-2.747
		c-0.682,0-1.021,0.346-1.021,1.031v0.814c0,0.289,0.101,0.518,0.302,0.689s0.447,0.258,0.737,0.258h2.061
		C224.342,228.157,224.677,227.849,224.677,227.228z"/>
	<path fill="#4E87B2" d="M231.125,222.657h-1.828v6.931h-1.412v-11.267h1.412v2.941h1.828V222.657z"/>
	<path fill="#4E87B2" d="M239.252,227.511c0,0.621-0.181,1.122-0.54,1.503c-0.359,0.383-0.851,0.574-1.471,0.574h-2.727
		c-0.652,0-1.175-0.166-1.562-0.5c-0.422-0.354-0.632-0.853-0.632-1.495v-1.496c0-0.654,0.188-1.164,0.563-1.529
		c0.377-0.367,0.894-0.549,1.546-0.549h3.406c-0.011-0.471-0.078-0.801-0.2-0.992c-0.155-0.248-0.456-0.371-0.902-0.371h-4.413
		v-1.395h4.607c1.549,0,2.321,0.703,2.321,2.109v4.141H239.252z M237.839,227.228v-1.594c0-0.178-0.11-0.268-0.335-0.268h-2.747
		c-0.682,0-1.021,0.346-1.021,1.031v0.814c0,0.289,0.101,0.518,0.302,0.689s0.447,0.258,0.737,0.258h2.061
		C237.504,228.157,237.839,227.849,237.839,227.228z"/>
	<path fill="#4E87B2" d="M248.025,227.36c0,1.485-0.727,2.228-2.177,2.228h-2.511c-0.643,0-1.188-0.18-1.637-0.539
		c-0.448-0.359-0.673-0.94-0.673-1.737v-8.99h1.412v2.941h3.417c0.667,0,1.193,0.199,1.584,0.598
		c0.389,0.398,0.583,0.932,0.583,1.596L248.025,227.36L248.025,227.36z M246.613,227.013v-3.174c0-0.766-0.393-1.146-1.173-1.146
		h-2.646c-0.234,0-0.353,0.111-0.353,0.332v4.072c0,0.709,0.419,1.063,1.257,1.063h1.742c0.436,0,0.754-0.105,0.954-0.316
		C246.54,227.688,246.613,227.411,246.613,227.013z"/>
	<path fill="#4E87B2" d="M256.717,227.511c0,0.621-0.181,1.122-0.54,1.503c-0.359,0.383-0.851,0.574-1.471,0.574h-2.726
		c-0.653,0-1.175-0.166-1.563-0.5c-0.422-0.354-0.632-0.853-0.632-1.495v-1.496c0-0.654,0.188-1.164,0.564-1.529
		c0.377-0.367,0.893-0.549,1.546-0.549h3.405c-0.011-0.471-0.077-0.801-0.199-0.992c-0.156-0.248-0.457-0.371-0.903-0.371h-4.413
		v-1.395h4.608c1.548,0,2.32,0.703,2.32,2.109v4.141H256.717z M255.304,227.228v-1.594c0-0.178-0.11-0.268-0.335-0.268h-2.747
		c-0.682,0-1.021,0.346-1.021,1.031v0.814c0,0.289,0.101,0.518,0.302,0.689s0.447,0.258,0.737,0.258h2.061
		C254.969,228.157,255.304,227.849,255.304,227.228z"/>
	<path fill="#4E87B2" d="M264.644,222.657h-3.761c-0.342,0-0.596,0.057-0.762,0.168c-0.231,0.156-0.348,0.369-0.348,0.637v0.336
		c0,0.582,0.382,0.871,1.146,0.871h1.861c0.543,0,0.989,0.184,1.338,0.549s0.523,0.82,0.523,1.363v1.047
		c0,0.52-0.178,0.985-0.53,1.396c-0.21,0.244-0.432,0.404-0.663,0.482c-0.188,0.057-0.464,0.082-0.828,0.082h-4.26v-1.429h3.875
		c0.396,0,0.662-0.109,0.795-0.334c0.099-0.154,0.148-0.441,0.148-0.863c0-0.576-0.311-0.863-0.931-0.863h-1.762
		c-0.6,0-1.093-0.162-1.479-0.482c-0.432-0.344-0.646-0.803-0.646-1.379v-1.113c0-0.619,0.248-1.125,0.744-1.512
		c0.3-0.232,0.764-0.35,1.394-0.35h4.144v1.395H264.644z"/>
	<path fill="#4E87B2" d="M273.201,224.536l-5.468,2.227v0.25c0,0.443,0.122,0.76,0.367,0.947c0.166,0.133,0.454,0.199,0.865,0.199
		h4.234v1.429h-4.498c-0.777,0-1.349-0.154-1.716-0.465c-0.466-0.387-0.699-0.985-0.699-1.794v-3.939
		c0-1.418,0.759-2.127,2.276-2.127h2.51c1.418,0,2.127,0.744,2.127,2.227L273.201,224.536L273.201,224.536z M271.738,223.728v-0.133
		c0-0.625-0.375-0.938-1.125-0.938h-1.572c-0.871,0-1.308,0.357-1.308,1.07v1.656L271.738,223.728z"/>
	<path fill="#4E87B2" d="M285.913,228.208c0,0.421-0.111,0.771-0.332,1.048c-0.244,0.311-0.571,0.465-0.979,0.465
		c-0.39,0-0.688-0.123-0.897-0.365c-0.089-0.1-0.25-0.398-0.481-0.896l-3.757-7.86v8.989h-1.545v-9.556
		c0-1.086,0.438-1.629,1.313-1.629c0.398,0,0.704,0.117,0.914,0.35c0.109,0.123,0.276,0.422,0.499,0.896l3.722,7.846v-8.99h1.546
		v9.703H285.913z"/>
	<path fill="#4E87B2" d="M294.621,224.536l-5.468,2.227v0.25c0,0.443,0.122,0.76,0.367,0.947c0.166,0.133,0.455,0.199,0.865,0.199
		h4.234v1.429h-4.498c-0.777,0-1.349-0.154-1.716-0.465c-0.466-0.387-0.699-0.985-0.699-1.794v-3.939
		c0-1.418,0.759-2.127,2.276-2.127h2.51c1.418,0,2.127,0.744,2.127,2.227L294.621,224.536L294.621,224.536z M293.158,223.728v-0.133
		c0-0.625-0.375-0.938-1.125-0.938h-1.572c-0.871,0-1.308,0.357-1.308,1.07v1.656L293.158,223.728z"/>
	<path fill="#4E87B2" d="M299.489,222.657h-1.828v6.931h-1.412v-11.267h1.412v2.941h1.828V222.657z"/>
	<path fill="#4E87B2" d="M311.056,221.263l-1.777,7.28c-0.188,0.764-0.581,1.145-1.18,1.145c-0.576,0-0.953-0.363-1.131-1.094
		l-1.278-5.321l-1.23,5.321c-0.166,0.729-0.554,1.094-1.163,1.094c-0.587,0-0.975-0.381-1.163-1.145l-1.762-7.28h1.396l1.596,6.514
		l1.33-5.518c0.166-0.709,0.509-1.063,1.029-1.063c0.521,0,0.864,0.354,1.03,1.063l1.313,5.518l1.596-6.514H311.056z"/>
	<path fill="#4E87B2" d="M319.231,227.511c0,0.73-0.232,1.284-0.698,1.661c-0.332,0.277-0.831,0.416-1.495,0.416h-2.477
		c-0.753,0-1.318-0.182-1.695-0.547c-0.376-0.367-0.564-0.876-0.564-1.53v-4.137c0-0.732,0.238-1.291,0.716-1.68
		c0.343-0.287,0.857-0.432,1.545-0.432h2.477c0.688,0,1.19,0.139,1.512,0.416c0.454,0.389,0.683,0.953,0.683,1.695v4.137H319.231z
		 M317.818,227.126v-3.367c0-0.379-0.111-0.668-0.335-0.867c-0.18-0.156-0.458-0.234-0.838-0.234h-1.708
		c-0.393,0-0.683,0.078-0.871,0.234c-0.235,0.189-0.354,0.479-0.354,0.867v3.35c0,0.367,0.117,0.645,0.354,0.834
		c0.179,0.145,0.435,0.217,0.771,0.217h1.91c0.323,0,0.569-0.072,0.736-0.217C317.707,227.753,317.818,227.481,317.818,227.126z"/>
	<path fill="#4E87B2" d="M324.3,222.657c-0.716,0-1.156,0.035-1.323,0.102c-0.369,0.143-0.555,0.51-0.555,1.098v5.731h-1.412v-6.101
		c0-1.482,0.742-2.227,2.228-2.227h1.063V222.657z"/>
	<path fill="#4E87B2" d="M327.008,229.588h-1.412v-11.267h1.412V229.588z M332.16,229.588h-1.762l-3.041-3.688
		c-0.167-0.201-0.25-0.389-0.25-0.564c0-0.199,0.095-0.41,0.282-0.631l2.875-3.441h1.712l-3.341,4.072L332.16,229.588z"/>
</g>
</svg>
