<?xml version="1.0" encoding="utf-8"?>
<!-- Generator: Adobe Illustrator 16.0.0, SVG Export Plug-In . SVG Version: 6.00 Build 0)  -->
<!DOCTYPE svg PUBLIC "-//W3C//DTD SVG 1.1//EN" "http://www.w3.org/Graphics/SVG/1.1/DTD/svg11.dtd">
<svg version="1.1" id="Layer_1" xmlns="http://www.w3.org/2000/svg" xmlns:xlink="http://www.w3.org/1999/xlink" x="0px" y="0px"
	 width="120px" height="30px" viewBox="0 0 120 30" enable-background="new 0 0 120 30" xml:space="preserve">
<g>
	
		<rect x="18.306" y="3.979" transform="matrix(0.7071 -0.7071 0.7071 0.7071 -0.0847 20.4654)" fill="#FFFFFF" width="12.711" height="12.711"/>
	
		<rect x="39.654" y="3.978" transform="matrix(0.7071 -0.7071 0.7071 0.7071 6.168 35.5593)" fill="#FFFFFF" width="12.712" height="12.711"/>
	
		<rect x="28.982" y="14.656" transform="matrix(0.7071 -0.7071 0.7071 0.7071 -4.5077 31.1404)" fill="#FFFFFF" width="12.712" height="12.712"/>
	
		<rect x="7.633" y="14.654" transform="matrix(0.7071 -0.7071 0.7071 0.7071 -10.7589 16.0462)" fill="#FFFFFF" width="12.712" height="12.712"/>
</g>
<g>
	<defs>
		<path id="SVGID_1_" d="M56.698,12.481h52.959c0,0-27.594,13.451-53.495,16.454c26.929-1.532,53.495-13.645,53.495-13.645V9.339
			h5.967v19.597H54.959V12.481H56.698z"/>
	</defs>
	<clipPath id="SVGID_2_">
		<use xlink:href="#SVGID_1_"  overflow="visible"/>
	</clipPath>
	
		<polyline clip-path="url(#SVGID_2_)" fill="none" stroke="#FFFFFF" stroke-width="2.6754" stroke-linecap="square" stroke-miterlimit="10" points="
		113.282,18.233 113.282,27.598 107.933,27.598 94.555,27.598 94.555,14.22 107.933,14.22 107.933,20.908 94.555,20.908 
		89.205,20.908 75.827,20.908 75.827,27.598 	"/>
	<polygon clip-path="url(#SVGID_2_)" fill="#FFFFFF" points="56.162,12.883 89.205,12.883 89.205,15.56 58.838,15.56 58.838,19.57 
		72.217,19.57 72.217,28.936 56.162,28.936 56.162,26.259 69.54,26.259 69.54,22.247 56.162,22.247 	"/>
</g>
<path fill-rule="evenodd" clip-rule="evenodd" fill="#FFFFFF" d="M111.032,9.961c-0.051,0.42-0.124,0.836-0.155,1.258
	c-0.1,1.255,0.025,2.686,1.24,3.375c0.679,0.383,1.527,0.398,2.286,0.28c-0.958,0.151-1.899-0.637-2.368-1.397
	c-0.161-0.262-0.258-0.553-0.298-0.853c-0.043-0.287-0.055-0.598-0.249-0.831c1.117,1.361,2.836,3.348,4.783,2.25
	c-0.521,0.298-1.244-0.527-1.452-0.929c-0.278-0.526-0.291-1.207-0.784-1.604c-0.428-0.35-1.003-0.41-1.525-0.544
	C112.057,10.839,110.954,10.624,111.032,9.961L111.032,9.961z"/>
</svg>
