<?xml version="1.0" encoding="utf-8"?>
<!-- Generator: Adobe Illustrator 16.0.0, SVG Export Plug-In . SVG Version: 6.00 Build 0)  -->
<svg version="1.2" baseProfile="tiny" id="Layer_1" xmlns="http://www.w3.org/2000/svg" xmlns:xlink="http://www.w3.org/1999/xlink"
	 x="0px" y="0px" width="800px" height="240px" viewBox="0 0 800 240" xml:space="preserve">
<g>
	<g>
		<polygon fill="#4E87B2" points="87.539,234.528 195.622,234.545 267.297,110.401 213.255,16.815 		"/>
		<polygon fill="#4E87B2" points="218.345,6.623 326.429,6.605 398.103,130.75 344.062,224.335 		"/>
		<polygon fill="#4E87B2" points="349.152,234.528 457.234,234.545 528.909,110.401 474.869,16.815 		"/>
	</g>
	<polygon fill="none" stroke="#FFFFFF" stroke-width="6" stroke-miterlimit="10" points="87.539,234.528 267.297,110.401 
		326.429,6.605 344.062,224.335 349.152,234.528 528.909,110.401 474.869,16.815 457.234,234.545 398.103,130.75 218.345,6.623 
		213.255,16.815 195.622,234.545 	"/>
</g>
<g>
	<path fill="#4E87B2" d="M545.782,129.655v1.383c-1.984-1.055-3.93-1.582-5.836-1.582c-2.031,0-3.73,0.691-5.098,2.074
		s-2.051,3.109-2.051,5.18c0,2.094,0.688,3.816,2.063,5.168s3.129,2.027,5.262,2.027c1.781,0,3.723-0.559,5.824-1.676v1.313
		c-1.938,1.023-3.871,1.535-5.801,1.535c-2.492,0-4.568-0.799-6.229-2.396s-2.49-3.588-2.49-5.971c0-2.398,0.848-4.402,2.543-6.012
		s3.715-2.414,6.059-2.414C541.872,128.284,543.79,128.741,545.782,129.655z"/>
	<path fill="#4E87B2" d="M553.001,133.874c1.563,0,2.865,0.535,3.908,1.605s1.564,2.406,1.564,4.008c0,1.594-0.521,2.924-1.564,3.99
		s-2.346,1.6-3.908,1.6s-2.869-0.533-3.92-1.6s-1.576-2.396-1.576-3.99c0-1.602,0.525-2.938,1.576-4.008
		S551.438,133.874,553.001,133.874z M553.001,143.952c1.211,0,2.223-0.424,3.035-1.271s1.219-1.912,1.219-3.193
		c0-1.273-0.408-2.34-1.225-3.199s-1.826-1.289-3.029-1.289c-1.219,0-2.236,0.426-3.053,1.277s-1.225,1.922-1.225,3.211
		c0,1.281,0.408,2.346,1.225,3.193S551.782,143.952,553.001,143.952z"/>
	<path fill="#4E87B2" d="M570.286,128.495v16.371h-1.16v-0.844c-0.984,0.703-2.047,1.055-3.188,1.055
		c-1.531,0-2.822-0.541-3.873-1.623s-1.576-2.412-1.576-3.99c0-1.602,0.518-2.934,1.553-3.996s2.334-1.594,3.896-1.594
		c0.992,0,2.055,0.289,3.188,0.867v-6.246H570.286z M569.126,142.967v-6.961c-1.031-0.672-2.078-1.008-3.141-1.008
		c-1.242,0-2.266,0.412-3.07,1.236s-1.207,1.877-1.207,3.158c0,1.305,0.43,2.391,1.289,3.258s1.934,1.301,3.223,1.301
		C567.22,143.952,568.188,143.624,569.126,142.967z"/>
	<path fill="#4E87B2" d="M582.415,139.077h-8.496c-0.023,0.188-0.035,0.375-0.035,0.563c0,1.203,0.43,2.223,1.289,3.059
		s1.875,1.254,3.047,1.254c1.367,0,2.703-0.535,4.008-1.605v1.301c-1.234,0.953-2.617,1.43-4.148,1.43
		c-1.555,0-2.84-0.539-3.855-1.617s-1.523-2.449-1.523-4.113c0-1.578,0.469-2.885,1.406-3.92s2.117-1.553,3.539-1.553
		c1.336,0,2.465,0.467,3.387,1.4S582.415,137.475,582.415,139.077z M574.071,138.151h6.984c-0.406-2.102-1.543-3.152-3.41-3.152
		c-0.883,0-1.646,0.275-2.291,0.826S574.282,137.151,574.071,138.151z"/>
	<path fill="#4E87B2" d="M585.872,134.084v1.875h0.047c0.898-1.391,2.082-2.086,3.551-2.086c1.219,0,2.191,0.391,2.918,1.172
		s1.09,1.863,1.09,3.246v6.574h-1.148v-6.141c0-2.484-0.977-3.727-2.93-3.727c-1.43,0-2.605,0.77-3.527,2.309v7.559h-1.148v-10.781
		H585.872z"/>
	<path fill="#4E87B2" d="M605.103,142.991v0.961c-0.992,0.75-1.719,1.125-2.18,1.125c-0.266,0-0.449-0.088-0.551-0.264
		s-0.176-0.533-0.223-1.072c-1.133,0.891-2.258,1.336-3.375,1.336c-0.813,0-1.5-0.266-2.063-0.797s-0.844-1.176-0.844-1.934
		c0-1.172,0.543-2.096,1.629-2.771s2.637-1.064,4.652-1.166v-1.371c0-1.469-0.797-2.203-2.391-2.203
		c-1.016,0-2.113,0.457-3.293,1.371v-1.184c1.219-0.766,2.379-1.148,3.48-1.148c0.977,0,1.781,0.24,2.414,0.721
		s0.949,1.178,0.949,2.092v6.715c0,0.367,0.086,0.551,0.258,0.551C603.786,143.952,604.298,143.631,605.103,142.991z
		 M602.149,142.733v-3.363c-1.477-0.055-2.701,0.205-3.674,0.779s-1.459,1.307-1.459,2.197c0,0.5,0.203,0.922,0.609,1.266
		s0.914,0.516,1.523,0.516C600.134,144.127,601.134,143.663,602.149,142.733z"/>
	<path fill="#4E87B2" d="M607.833,134.084v1.898h0.047c0.875-1.406,2.02-2.109,3.434-2.109c1.648,0,2.809,0.863,3.48,2.59
		c1.014-1.727,2.262-2.59,3.744-2.59c1.115,0,2.017,0.398,2.703,1.195c0.686,0.797,1.029,1.855,1.029,3.176v6.621h-1.148v-6.117
		c0-1.164-0.246-2.08-0.737-2.748s-1.181-1.002-2.069-1.002c-0.663,0-1.24,0.199-1.731,0.598s-0.998,1.039-1.521,1.922v7.348h-1.16
		v-6.141c0-1.195-0.256-2.115-0.768-2.76s-1.197-0.967-2.057-0.967c-1.25,0-2.332,0.77-3.246,2.309v7.559h-1.148v-10.781H607.833z"
		/>
	<path fill="#4E87B2" d="M634.423,139.077h-8.496c-0.023,0.188-0.035,0.375-0.035,0.563c0,1.203,0.43,2.223,1.289,3.059
		s1.875,1.254,3.047,1.254c1.367,0,2.703-0.535,4.008-1.605v1.301c-1.234,0.953-2.617,1.43-4.148,1.43
		c-1.555,0-2.84-0.539-3.855-1.617s-1.523-2.449-1.523-4.113c0-1.578,0.469-2.885,1.406-3.92s2.117-1.553,3.539-1.553
		c1.336,0,2.465,0.467,3.387,1.4S634.423,137.475,634.423,139.077z M626.079,138.151h6.984c-0.406-2.102-1.543-3.152-3.41-3.152
		c-0.883,0-1.646,0.275-2.291,0.826S626.29,137.151,626.079,138.151z"/>
	<path fill="#4E87B2" d="M563.513,148.124v32.742h-2.083l-24.894-28.617v28.617h-2.531v-32.742h2.145l24.832,28.617v-28.617H563.513
		z"/>
	<path fill="#4E87B2" d="M580.271,158.881c3.125,0,5.73,1.07,7.816,3.211s3.129,4.813,3.129,8.016c0,3.188-1.043,5.848-3.129,7.98
		s-4.691,3.199-7.816,3.199s-5.738-1.066-7.84-3.199s-3.152-4.793-3.152-7.98c0-3.203,1.051-5.875,3.152-8.016
		S577.146,158.881,580.271,158.881z M580.271,179.038c2.422,0,4.445-0.848,6.07-2.543s2.438-3.824,2.438-6.387
		c0-2.547-0.816-4.68-2.449-6.398s-3.652-2.578-6.059-2.578c-2.438,0-4.473,0.852-6.105,2.555s-2.449,3.844-2.449,6.422
		c0,2.563,0.816,4.691,2.449,6.387S577.833,179.038,580.271,179.038z"/>
	<path fill="#4E87B2" d="M611.185,161.436l-1.336,2.156c-1.797-1.641-3.242-2.461-4.336-2.461c-2.156,0-4.461,2.063-6.914,6.188
		v13.547h-2.297v-21.563h2.297v5.672h0.094c2.578-4.063,5.094-6.094,7.547-6.094C607.646,158.881,609.294,159.733,611.185,161.436z"
		/>
	<path fill="#4E87B2" d="M620.302,152.155v7.148h6.047v1.875h-6.047v12.82c0,2.063,0.168,3.418,0.504,4.066s1.238,0.973,2.707,0.973
		c1.125,0,2.438-0.352,3.938-1.055v2.203c-1.516,0.734-3,1.102-4.453,1.102c-1.422,0-2.609-0.406-3.563-1.219
		s-1.43-1.938-1.43-3.375v-15.516h-5.813v-1.875h5.813v-5.133l1.57-2.016H620.302z"/>
	<path fill="#4E87B2" d="M632.864,148.124v14.93h0.094c1.797-2.781,4.164-4.172,7.102-4.172c2.438,0,4.383,0.781,5.836,2.344
		s2.18,3.711,2.18,6.445v13.195h-2.297v-12.281c0-4.969-1.953-7.453-5.859-7.453c-2.797,0-5.148,1.539-7.055,4.617v15.117h-2.297
		v-32.742H632.864z"/>
	<path fill="#4E87B2" d="M683.653,149.764v2.789c-2.844-1.672-5.289-2.508-7.336-2.508c-1.969,0-3.613,0.598-4.934,1.793
		s-1.98,2.676-1.98,4.441c0,1.266,0.391,2.406,1.172,3.422s2.414,1.992,4.898,2.93s4.297,1.719,5.438,2.344s2.109,1.531,2.906,2.719
		s1.195,2.727,1.195,4.617c0,2.516-0.922,4.641-2.766,6.375s-4.094,2.602-6.75,2.602c-2.719,0-5.516-0.953-8.391-2.859v-2.977
		c3.172,2.328,5.922,3.492,8.25,3.492c1.938,0,3.574-0.629,4.91-1.887s2.004-2.801,2.004-4.63c0-1.391-0.414-2.645-1.242-3.762
		s-2.507-2.162-5.037-3.133s-4.339-1.754-5.425-2.347c-1.087-0.593-2.01-1.44-2.768-2.542c-0.759-1.101-1.138-2.518-1.138-4.251
		c0-2.405,0.922-4.455,2.766-6.149c1.844-1.694,4.063-2.542,6.656-2.542C678.63,147.702,681.153,148.389,683.653,149.764z"/>
	<path fill="#4E87B2" d="M694.177,152.155v7.148h6.047v1.875h-6.047v12.82c0,2.063,0.168,3.418,0.504,4.066s1.238,0.973,2.707,0.973
		c1.125,0,2.438-0.352,3.938-1.055v2.203c-1.516,0.734-3,1.102-4.453,1.102c-1.422,0-2.609-0.406-3.563-1.219
		s-1.43-1.938-1.43-3.375v-15.516h-5.813v-1.875h5.813v-5.133l1.57-2.016H694.177z"/>
	<path fill="#4E87B2" d="M721.669,177.116v1.922c-1.984,1.5-3.438,2.25-4.359,2.25c-0.531,0-0.898-0.176-1.102-0.527
		s-0.352-1.066-0.445-2.145c-2.266,1.781-4.516,2.672-6.75,2.672c-1.625,0-3-0.531-4.125-1.594s-1.688-2.352-1.688-3.867
		c0-2.344,1.086-4.191,3.258-5.543s5.273-2.129,9.305-2.332v-2.742c0-2.938-1.594-4.406-4.781-4.406
		c-2.031,0-4.227,0.914-6.586,2.742v-2.367c2.438-1.531,4.758-2.297,6.961-2.297c1.953,0,3.563,0.48,4.828,1.441
		s1.898,2.355,1.898,4.184v13.43c0,0.734,0.172,1.102,0.516,1.102C719.036,179.038,720.06,178.397,721.669,177.116z M715.763,176.6
		v-6.727c-2.953-0.109-5.402,0.41-7.348,1.559s-2.918,2.613-2.918,4.395c0,1,0.406,1.844,1.219,2.531s1.828,1.031,3.047,1.031
		C711.731,179.389,713.731,178.459,715.763,176.6z"/>
	<path fill="#4E87B2" d="M739.856,161.436l-1.336,2.156c-1.797-1.641-3.242-2.461-4.336-2.461c-2.156,0-4.461,2.063-6.914,6.188
		v13.547h-2.297v-21.563h2.297v5.672h0.094c2.578-4.063,5.094-6.094,7.547-6.094C736.317,158.881,737.966,159.733,739.856,161.436z"
		/>
</g>
<g>
	<path fill="#4E87B2" d="M541.973,193.839l-7.212,3.44v-1.429l5.683-2.625l-5.683-2.642v-1.413l7.212,3.44V193.839z"/>
	<path fill="#4E87B2" d="M550.829,187.641l-6.314,11.084h-1.529l6.299-11.084H550.829z"/>
	<path fill="#4E87B2" d="M559.056,189.236h-4.126c-0.674,0-1.093,0.172-1.259,0.518c-0.1,0.2-0.149,0.674-0.149,1.42
		c0,0.39,0.128,0.691,0.383,0.902c0.21,0.167,0.554,0.25,1.03,0.25h1.711c0.731,0,1.315,0.199,1.754,0.598
		c0.438,0.399,0.656,0.958,0.656,1.679v1.761c0,0.765-0.225,1.349-0.675,1.753c-0.449,0.404-1.063,0.606-1.841,0.606h-4.63v-1.595
		h4.162c0.691,0,1.12-0.19,1.287-0.571c0.078-0.179,0.117-0.677,0.117-1.494c0-0.761-0.45-1.142-1.35-1.142h-1.717
		c-0.712,0-1.295-0.188-1.75-0.563c-0.5-0.409-0.75-0.961-0.75-1.657v-1.724c0-0.785,0.271-1.403,0.813-1.856
		c0.375-0.32,0.923-0.48,1.641-0.48h4.692V189.236z"/>
	<path fill="#4E87B2" d="M567.796,193.989h-5.6v4.736h-1.612v-8.824c0-0.731,0.249-1.313,0.748-1.745
		c0.398-0.343,0.991-0.515,1.777-0.515h4.687v1.595h-4.254c-0.897,0-1.346,0.39-1.346,1.169v1.988h5.6V193.989z"/>
	<path fill="#4E87B2" d="M576.204,198.725h-4.603c-0.798,0-1.419-0.194-1.861-0.582c-0.488-0.41-0.731-1.002-0.731-1.778v-6.265
		c0-0.765,0.216-1.365,0.648-1.803c0.432-0.438,1.03-0.656,1.794-0.656h4.753v1.595h-4.188c-0.931,0-1.396,0.417-1.396,1.253v1.904
		h5.583v1.595h-5.583v1.871c0,0.847,0.471,1.27,1.412,1.27h4.171V198.725z"/>
	<path fill="#4E87B2" d="M579.445,198.725h-1.612v-11.084h1.612V198.725z"/>
	<path fill="#4E87B2" d="M591.31,189.236h-4.126c-0.674,0-1.093,0.172-1.259,0.518c-0.1,0.2-0.149,0.674-0.149,1.42
		c0,0.39,0.128,0.691,0.383,0.902c0.21,0.167,0.554,0.25,1.03,0.25h1.711c0.731,0,1.315,0.199,1.754,0.598
		c0.438,0.399,0.656,0.958,0.656,1.679v1.761c0,0.765-0.225,1.349-0.675,1.753c-0.449,0.404-1.063,0.606-1.841,0.606h-4.63v-1.595
		h4.162c0.691,0,1.12-0.19,1.287-0.571c0.078-0.179,0.117-0.677,0.117-1.494c0-0.761-0.45-1.142-1.35-1.142h-1.717
		c-0.712,0-1.295-0.188-1.75-0.563c-0.5-0.409-0.75-0.961-0.75-1.657v-1.724c0-0.785,0.271-1.403,0.813-1.856
		c0.375-0.32,0.923-0.48,1.641-0.48h4.692V189.236z"/>
	<path fill="#4E87B2" d="M599.851,199.456c0,0.665-0.188,1.202-0.565,1.612c-0.377,0.41-0.892,0.615-1.545,0.615h-4.786v-1.446h4.4
		c0.478,0,0.794-0.144,0.95-0.432c0.089-0.188,0.133-0.548,0.133-1.08h-3.25c-0.678,0-1.206-0.183-1.583-0.548
		c-0.434-0.421-0.65-0.958-0.65-1.612v-6.166h1.412v5.767c0,0.753,0.374,1.13,1.123,1.13h2.58c0.245,0,0.368-0.144,0.368-0.432
		v-6.464h1.413V199.456z"/>
	<path fill="#4E87B2" d="M607.777,191.795h-3.76c-0.342,0-0.596,0.056-0.762,0.167c-0.231,0.157-0.348,0.369-0.348,0.637v0.335
		c0,0.582,0.382,0.872,1.146,0.872h1.861c0.543,0,0.989,0.183,1.338,0.548s0.523,0.82,0.523,1.363v1.047
		c0,0.521-0.177,0.986-0.53,1.396c-0.21,0.244-0.431,0.404-0.663,0.482c-0.188,0.056-0.464,0.083-0.828,0.083h-4.26v-1.429h3.875
		c0.397,0,0.662-0.11,0.795-0.333c0.099-0.155,0.149-0.443,0.149-0.864c0-0.576-0.311-0.864-0.931-0.864h-1.762
		c-0.599,0-1.092-0.161-1.479-0.482c-0.432-0.343-0.647-0.803-0.647-1.379v-1.113c0-0.62,0.248-1.125,0.745-1.512
		c0.299-0.233,0.763-0.349,1.393-0.349h4.144V191.795z"/>
	<path fill="#4E87B2" d="M612.679,191.795h-1.828v6.93h-1.412v-11.267h1.412v2.941h1.828V191.795z"/>
	<path fill="#4E87B2" d="M620.771,193.673l-5.468,2.227v0.25c0,0.443,0.122,0.759,0.367,0.947c0.166,0.133,0.455,0.199,0.866,0.199
		h4.234v1.429h-4.498c-0.777,0-1.349-0.155-1.716-0.465c-0.466-0.388-0.699-0.986-0.699-1.795v-3.938
		c0-1.418,0.759-2.127,2.276-2.127h2.51c1.418,0,2.127,0.743,2.127,2.227V193.673z M619.309,192.865v-0.133
		c0-0.625-0.375-0.937-1.125-0.937h-1.572c-0.871,0-1.308,0.357-1.308,1.07v1.656L619.309,192.865z"/>
	<path fill="#4E87B2" d="M632.503,198.725h-1.412v-5.797c0-0.566-0.201-0.916-0.602-1.049c-0.156-0.056-0.602-0.083-1.337-0.083
		c-0.323,0-0.586,0.117-0.786,0.35c-0.134,0.156-0.2,0.428-0.2,0.816v5.764h-1.413v-5.764c0-0.566-0.172-0.922-0.515-1.066
		c-0.178-0.066-0.615-0.1-1.313-0.1c-0.742,0-1.113,0.377-1.113,1.133v5.797h-1.412v-6.132c0-1.462,0.692-2.194,2.077-2.194h1.296
		c0.421,0,0.754,0.061,0.997,0.183c0.244,0.122,0.477,0.349,0.698,0.681c0.398-0.576,0.97-0.864,1.712-0.864h1.279
		c0.632,0,1.13,0.194,1.496,0.582c0.365,0.388,0.548,0.925,0.548,1.612V198.725z"/>
	<path fill="#4E87B2" d="M640.313,191.795h-3.76c-0.342,0-0.596,0.056-0.762,0.167c-0.231,0.157-0.348,0.369-0.348,0.637v0.335
		c0,0.582,0.382,0.872,1.146,0.872h1.861c0.543,0,0.989,0.183,1.338,0.548s0.523,0.82,0.523,1.363v1.047
		c0,0.521-0.177,0.986-0.53,1.396c-0.21,0.244-0.431,0.404-0.663,0.482c-0.188,0.056-0.464,0.083-0.828,0.083h-4.26v-1.429h3.875
		c0.397,0,0.662-0.11,0.795-0.333c0.099-0.155,0.149-0.443,0.149-0.864c0-0.576-0.311-0.864-0.931-0.864h-1.762
		c-0.599,0-1.092-0.161-1.479-0.482c-0.432-0.343-0.647-0.803-0.647-1.379v-1.113c0-0.62,0.248-1.125,0.745-1.512
		c0.299-0.233,0.763-0.349,1.393-0.349h4.144V191.795z"/>
	<path fill="#4E87B2" d="M541.973,213.781l-7.212,3.44v-1.429l5.683-2.625l-5.683-2.642v-1.413l7.212,3.44V213.781z"/>
	<path fill="#4E87B2" d="M550.281,213.781l-7.212,3.44v-1.429l5.683-2.625l-5.683-2.642v-1.413l7.212,3.44V213.781z"/>
	<path fill="#4E87B2" d="M559.138,207.583l-6.314,11.084h-1.529l6.299-11.084H559.138z"/>
	<path fill="#4E87B2" d="M562.08,218.667h-1.612v-11.084h1.612V218.667z"/>
	<path fill="#4E87B2" d="M573.944,218.667h-1.412v-5.797c0-0.566-0.201-0.916-0.602-1.049c-0.156-0.056-0.602-0.083-1.337-0.083
		c-0.323,0-0.586,0.117-0.786,0.35c-0.134,0.156-0.2,0.428-0.2,0.816v5.764h-1.413v-5.764c0-0.566-0.172-0.922-0.515-1.066
		c-0.178-0.066-0.615-0.1-1.313-0.1c-0.742,0-1.113,0.377-1.113,1.133v5.797h-1.412v-6.132c0-1.462,0.692-2.194,2.077-2.194h1.296
		c0.421,0,0.754,0.061,0.997,0.183c0.244,0.122,0.477,0.349,0.698,0.681c0.398-0.576,0.97-0.864,1.712-0.864h1.279
		c0.632,0,1.13,0.194,1.496,0.582c0.365,0.388,0.548,0.925,0.548,1.612V218.667z"/>
	<path fill="#4E87B2" d="M582.636,216.589c0,0.621-0.181,1.122-0.54,1.504c-0.36,0.382-0.851,0.573-1.471,0.573h-2.726
		c-0.653,0-1.175-0.166-1.562-0.499c-0.422-0.354-0.632-0.853-0.632-1.496v-1.496c0-0.654,0.188-1.163,0.564-1.529
		c0.377-0.366,0.893-0.548,1.546-0.548h3.406c-0.011-0.471-0.078-0.802-0.2-0.993c-0.156-0.247-0.457-0.37-0.903-0.37h-4.413v-1.396
		h4.608c1.548,0,2.321,0.704,2.321,2.11V216.589z M581.223,216.307v-1.595c0-0.177-0.111-0.266-0.335-0.266h-2.747
		c-0.682,0-1.022,0.344-1.022,1.031v0.814c0,0.288,0.101,0.518,0.302,0.69s0.447,0.257,0.737,0.257h2.061
		C580.888,217.237,581.223,216.927,581.223,216.307z"/>
	<path fill="#4E87B2" d="M591.344,219.397c0,1.485-0.805,2.227-2.415,2.227h-4.515v-1.396h4.341c0.508,0,0.845-0.146,1.011-0.437
		c0.11-0.202,0.165-0.577,0.165-1.125h-3.15c-0.788,0-1.38-0.186-1.774-0.557s-0.592-0.889-0.592-1.554v-3.889
		c0-0.798,0.172-1.385,0.515-1.762c0.344-0.376,0.914-0.565,1.712-0.565h2.377c0.809,0,1.398,0.164,1.77,0.49
		c0.371,0.327,0.557,0.889,0.557,1.687V219.397z M589.931,216.92v-3.95c0-0.422-0.077-0.711-0.232-0.867
		c-0.243-0.245-0.564-0.367-0.964-0.367h-1.778c-0.753,0-1.13,0.373-1.13,1.117v3.267c0,0.745,0.416,1.117,1.247,1.117h2.542
		C589.826,217.237,589.931,217.132,589.931,216.92z"/>
	<path fill="#4E87B2" d="M594.768,208.131c0,0.255-0.095,0.477-0.283,0.665c-0.188,0.188-0.41,0.283-0.664,0.283
		c-0.255,0-0.474-0.092-0.657-0.274c-0.183-0.183-0.273-0.401-0.273-0.656c0-0.266,0.088-0.493,0.266-0.682
		c0.177-0.188,0.398-0.282,0.665-0.282c0.266,0,0.49,0.091,0.673,0.274C594.676,207.641,594.768,207.865,594.768,208.131z
		 M594.551,218.667h-1.412v-8.326h1.412V218.667z"/>
	<path fill="#4E87B2" d="M603.159,218.667h-1.413v-5.914c0-0.677-0.4-1.016-1.201-1.016h-1.602c-0.813,0-1.219,0.339-1.219,1.016
		v5.914h-1.412v-6.298c0-1.352,0.726-2.027,2.177-2.027h2.51c1.439,0,2.16,0.676,2.16,2.027V218.667z"/>
	<path fill="#4E87B2" d="M611.867,219.397c0,1.485-0.805,2.227-2.415,2.227h-4.515v-1.396h4.341c0.508,0,0.845-0.146,1.011-0.437
		c0.11-0.202,0.165-0.577,0.165-1.125h-3.15c-0.788,0-1.38-0.186-1.774-0.557s-0.592-0.889-0.592-1.554v-3.889
		c0-0.798,0.172-1.385,0.515-1.762c0.344-0.376,0.914-0.565,1.712-0.565h2.377c0.809,0,1.398,0.164,1.77,0.49
		c0.371,0.327,0.557,0.889,0.557,1.687V219.397z M610.454,216.92v-3.95c0-0.422-0.077-0.711-0.232-0.867
		c-0.243-0.245-0.564-0.367-0.964-0.367h-1.778c-0.753,0-1.13,0.373-1.13,1.117v3.267c0,0.745,0.416,1.117,1.247,1.117h2.542
		C610.35,217.237,610.454,217.132,610.454,216.92z"/>
	<path fill="#4E87B2" d="M624.862,216.124c0,0.775-0.208,1.393-0.623,1.853c-0.416,0.459-1.006,0.689-1.77,0.689h-5.634v-11.084
		h5.601c1.617,0,2.426,0.831,2.426,2.493V216.124z M623.283,215.619v-5.123c0-0.879-0.444-1.318-1.334-1.318h-3.501v7.894h3.501
		C622.839,217.071,623.283,216.587,623.283,215.619z"/>
	<path fill="#4E87B2" d="M633.554,216.589c0,0.621-0.181,1.122-0.54,1.504c-0.36,0.382-0.851,0.573-1.471,0.573h-2.726
		c-0.653,0-1.175-0.166-1.562-0.499c-0.422-0.354-0.632-0.853-0.632-1.496v-1.496c0-0.654,0.188-1.163,0.564-1.529
		c0.377-0.366,0.893-0.548,1.546-0.548h3.406c-0.011-0.471-0.078-0.802-0.2-0.993c-0.156-0.247-0.457-0.37-0.903-0.37h-4.413v-1.396
		h4.608c1.548,0,2.321,0.704,2.321,2.11V216.589z M632.141,216.307v-1.595c0-0.177-0.111-0.266-0.335-0.266h-2.747
		c-0.682,0-1.022,0.344-1.022,1.031v0.814c0,0.288,0.101,0.518,0.302,0.69s0.447,0.257,0.737,0.257h2.061
		C631.806,217.237,632.141,216.927,632.141,216.307z"/>
	<path fill="#4E87B2" d="M638.589,211.737h-1.828v6.93h-1.412v-11.267h1.412v2.941h1.828V211.737z"/>
	<path fill="#4E87B2" d="M646.716,216.589c0,0.621-0.181,1.122-0.54,1.504c-0.36,0.382-0.851,0.573-1.471,0.573h-2.726
		c-0.653,0-1.175-0.166-1.562-0.499c-0.422-0.354-0.632-0.853-0.632-1.496v-1.496c0-0.654,0.188-1.163,0.564-1.529
		c0.377-0.366,0.893-0.548,1.546-0.548h3.406c-0.011-0.471-0.078-0.802-0.2-0.993c-0.156-0.247-0.457-0.37-0.903-0.37h-4.413v-1.396
		h4.608c1.548,0,2.321,0.704,2.321,2.11V216.589z M645.303,216.307v-1.595c0-0.177-0.111-0.266-0.335-0.266h-2.747
		c-0.682,0-1.022,0.344-1.022,1.031v0.814c0,0.288,0.101,0.518,0.302,0.69s0.447,0.257,0.737,0.257h2.061
		C644.968,217.237,645.303,216.927,645.303,216.307z"/>
	<path fill="#4E87B2" d="M655.489,216.44c0,1.484-0.726,2.227-2.177,2.227h-2.51c-0.643,0-1.188-0.18-1.637-0.54
		c-0.448-0.36-0.673-0.939-0.673-1.737v-8.99h1.412v2.941h3.417c0.667,0,1.194,0.2,1.584,0.598c0.389,0.399,0.583,0.931,0.583,1.596
		V216.44z M654.077,216.091v-3.174c0-0.764-0.392-1.146-1.173-1.146h-2.646c-0.235,0-0.353,0.111-0.353,0.333v4.071
		c0,0.709,0.419,1.063,1.257,1.063h1.742c0.436,0,0.754-0.105,0.954-0.316C654.004,216.767,654.077,216.49,654.077,216.091z"/>
	<path fill="#4E87B2" d="M664.181,216.589c0,0.621-0.181,1.122-0.54,1.504c-0.36,0.382-0.851,0.573-1.471,0.573h-2.726
		c-0.653,0-1.175-0.166-1.562-0.499c-0.422-0.354-0.632-0.853-0.632-1.496v-1.496c0-0.654,0.188-1.163,0.564-1.529
		c0.377-0.366,0.893-0.548,1.546-0.548h3.406c-0.011-0.471-0.078-0.802-0.2-0.993c-0.156-0.247-0.457-0.37-0.903-0.37h-4.413v-1.396
		h4.608c1.548,0,2.321,0.704,2.321,2.11V216.589z M662.768,216.307v-1.595c0-0.177-0.111-0.266-0.335-0.266h-2.747
		c-0.682,0-1.022,0.344-1.022,1.031v0.814c0,0.288,0.101,0.518,0.302,0.69s0.447,0.257,0.737,0.257h2.061
		C662.433,217.237,662.768,216.927,662.768,216.307z"/>
	<path fill="#4E87B2" d="M672.107,211.737h-3.76c-0.342,0-0.596,0.056-0.762,0.167c-0.231,0.157-0.348,0.369-0.348,0.637v0.335
		c0,0.582,0.382,0.872,1.146,0.872h1.861c0.543,0,0.989,0.183,1.338,0.548s0.523,0.82,0.523,1.363v1.047
		c0,0.521-0.177,0.986-0.53,1.396c-0.21,0.244-0.431,0.404-0.663,0.482c-0.188,0.056-0.464,0.083-0.828,0.083h-4.26v-1.429h3.875
		c0.397,0,0.662-0.11,0.795-0.333c0.099-0.155,0.149-0.443,0.149-0.864c0-0.576-0.311-0.864-0.931-0.864h-1.762
		c-0.599,0-1.092-0.161-1.479-0.482c-0.432-0.343-0.647-0.803-0.647-1.379v-1.113c0-0.62,0.248-1.125,0.745-1.512
		c0.299-0.233,0.763-0.349,1.393-0.349h4.144V211.737z"/>
	<path fill="#4E87B2" d="M680.665,213.615l-5.468,2.227v0.25c0,0.443,0.122,0.759,0.367,0.947c0.166,0.133,0.455,0.199,0.866,0.199
		h4.234v1.429h-4.498c-0.777,0-1.349-0.155-1.716-0.465c-0.466-0.388-0.699-0.986-0.699-1.795v-3.938
		c0-1.418,0.759-2.127,2.276-2.127h2.51c1.418,0,2.127,0.743,2.127,2.227V213.615z M679.202,212.807v-0.133
		c0-0.625-0.375-0.937-1.125-0.937h-1.572c-0.871,0-1.308,0.357-1.308,1.07v1.656L679.202,212.807z"/>
	<path fill="#4E87B2" d="M693.377,217.287c0,0.421-0.111,0.77-0.332,1.047c-0.244,0.311-0.571,0.465-0.98,0.465
		c-0.389,0-0.688-0.122-0.897-0.365c-0.089-0.1-0.25-0.399-0.482-0.897l-3.756-7.86v8.99h-1.545v-9.555
		c0-1.086,0.438-1.629,1.313-1.629c0.399,0,0.704,0.117,0.914,0.349c0.11,0.122,0.277,0.421,0.499,0.897l3.722,7.844v-8.99h1.546
		V217.287z"/>
	<path fill="#4E87B2" d="M702.085,213.615l-5.468,2.227v0.25c0,0.443,0.122,0.759,0.367,0.947c0.166,0.133,0.455,0.199,0.866,0.199
		h4.234v1.429h-4.498c-0.777,0-1.349-0.155-1.716-0.465c-0.466-0.388-0.699-0.986-0.699-1.795v-3.938
		c0-1.418,0.759-2.127,2.276-2.127h2.51c1.418,0,2.127,0.743,2.127,2.227V213.615z M700.622,212.807v-0.133
		c0-0.625-0.375-0.937-1.125-0.937h-1.572c-0.871,0-1.308,0.357-1.308,1.07v1.656L700.622,212.807z"/>
	<path fill="#4E87B2" d="M706.953,211.737h-1.828v6.93h-1.412v-11.267h1.412v2.941h1.828V211.737z"/>
	<path fill="#4E87B2" d="M718.52,210.341l-1.778,7.281c-0.188,0.763-0.581,1.144-1.18,1.144c-0.576,0-0.953-0.364-1.13-1.094
		l-1.279-5.321l-1.23,5.321c-0.166,0.729-0.554,1.094-1.163,1.094c-0.587,0-0.975-0.381-1.163-1.144l-1.762-7.281h1.396l1.595,6.514
		l1.33-5.517c0.166-0.709,0.509-1.063,1.03-1.063c0.521,0,0.864,0.354,1.03,1.063l1.313,5.517l1.596-6.514H718.52z"/>
	<path fill="#4E87B2" d="M726.695,216.589c0,0.731-0.232,1.285-0.698,1.662c-0.332,0.277-0.831,0.416-1.495,0.416h-2.477
		c-0.753,0-1.318-0.183-1.695-0.548c-0.376-0.366-0.564-0.875-0.564-1.529v-4.138c0-0.731,0.238-1.29,0.715-1.678
		c0.343-0.288,0.858-0.432,1.545-0.432h2.477c0.687,0,1.19,0.139,1.512,0.416c0.454,0.388,0.682,0.953,0.682,1.695V216.589z
		 M725.282,216.204v-3.367c0-0.378-0.111-0.667-0.335-0.867c-0.179-0.155-0.458-0.233-0.838-0.233h-1.708
		c-0.392,0-0.682,0.078-0.871,0.233c-0.235,0.189-0.353,0.478-0.353,0.867v3.351c0,0.366,0.117,0.644,0.353,0.833
		c0.179,0.145,0.435,0.217,0.771,0.217h1.91c0.323,0,0.569-0.072,0.736-0.217C725.171,216.832,725.282,216.56,725.282,216.204z"/>
	<path fill="#4E87B2" d="M731.764,211.737c-0.716,0-1.157,0.034-1.324,0.1c-0.369,0.144-0.554,0.511-0.554,1.099v5.73h-1.412v-6.099
		c0-1.484,0.742-2.227,2.227-2.227h1.063V211.737z"/>
	<path fill="#4E87B2" d="M734.472,218.667h-1.412v-11.267h1.412V218.667z M739.624,218.667h-1.762l-3.041-3.689
		c-0.167-0.2-0.25-0.388-0.25-0.565c0-0.199,0.095-0.41,0.283-0.631l2.875-3.44h1.711l-3.34,4.071L739.624,218.667z"/>
</g>
</svg>
