<?xml version="1.0" encoding="utf-8"?>
<!-- Generator: Adobe Illustrator 16.0.0, SVG Export Plug-In . SVG Version: 6.00 Build 0)  -->
<!DOCTYPE svg PUBLIC "-//W3C//DTD SVG 1.1//EN" "http://www.w3.org/Graphics/SVG/1.1/DTD/svg11.dtd">
<svg version="1.1" id="Layer_1" xmlns="http://www.w3.org/2000/svg" xmlns:xlink="http://www.w3.org/1999/xlink" x="0px" y="0px"
	 width="120px" height="30px" viewBox="0 0 120 30" enable-background="new 0 0 120 30" xml:space="preserve">
<g>
	<g>
		<g>
			<path fill="#FFFFFF" d="M81.064,8.798c0.545-0.172,1.078-0.343,1.595-0.511V6.461h5.374c1.052-0.372,1.932-0.693,2.597-0.939
				V4.867h-9.563v3.931H81.064z"/>
			<path fill="#FFFFFF" d="M92.225,12.838H82.66v-2.392h7.971V5.661c-0.48,0.224-1.068,0.494-1.748,0.8h0.154v2.392h-5.732
				c-1.281,0.522-2.652,1.062-4.076,1.594h1.838v3.985H93.82V7.259h-1.594v5.579H92.225z"/>
			<path fill="#FFFFFF" d="M71.5,10.446h4.104c1.854-0.53,3.631-1.069,5.289-1.594H69.906v3.119
				c0.533-0.133,1.064-0.267,1.594-0.404V10.446z"/>
			<path fill="#FFFFFF" d="M71.5,13.029c-0.533,0.154-1.064,0.303-1.594,0.442v0.96H71.5V13.029z"/>
			<path fill="#FFFFFF" d="M56.661,12.839v1.594c3.043-0.316,6.284-0.888,9.524-1.594H56.661z"/>
			<path fill="#FFFFFF" d="M65.66,14.433h2.891v-0.618C67.568,14.052,66.6,14.262,65.66,14.433z"/>
			<path fill="#FFFFFF" d="M78.674,6.462V4.867H58.986v5.579h7.971v2.224c0.532-0.12,1.063-0.242,1.594-0.368V8.853h-7.97V6.462
				H78.674z"/>
		</g>
		<path fill="#FFFFFF" d="M92.786,3.682C92.646,3.613,92.111,3,92.111,3c-0.754,1.443-0.459,2.41,1.471,3.298
			c-0.497-0.294-1.861-1.872-1.419-2.759c-0.194,0.687,0.782,2.075,1.453,2.67C93.852,5.616,94.1,4.332,92.786,3.682z"/>
	</g>
	
		<rect x="18.306" y="3.306" transform="matrix(-0.7071 0.7071 -0.7071 -0.7071 48.9319 -0.9447)" fill="#FFFFFF" width="12.712" height="12.711"/>
	
		<rect x="39.654" y="3.307" transform="matrix(-0.7071 0.7071 -0.7071 -0.7071 85.3758 -16.04)" fill="#FFFFFF" width="12.712" height="12.712"/>
	
		<rect x="28.981" y="13.982" transform="matrix(-0.7071 0.7071 -0.7071 -0.7071 74.7052 9.733)" fill="#FFFFFF" width="12.712" height="12.712"/>
	
		<rect x="7.632" y="13.982" transform="matrix(-0.7071 0.7071 -0.7071 -0.7071 38.2611 24.8269)" fill="#FFFFFF" width="12.712" height="12.712"/>
	<g>
		<path fill="#FFFFFF" d="M51.484,23.514v4.443h-1.367v-6.836h1.88l1.88,4.102v-4.102h1.367v6.836h-1.538L51.484,23.514z"/>
		<path fill="#FFFFFF" d="M61.745,21.121c0.287,0,0.53,0.1,0.728,0.297c0.198,0.199,0.297,0.441,0.297,0.729v4.785
			c0,0.282-0.099,0.524-0.297,0.725c-0.197,0.201-0.44,0.302-0.728,0.302H56.96c-0.283,0-0.524-0.101-0.725-0.302
			c-0.201-0.199-0.301-0.441-0.301-0.725v-4.785c0-0.287,0.1-0.528,0.301-0.729c0.201-0.197,0.442-0.297,0.725-0.297H61.745z
			 M61.402,22.488h-4.102v4.102h4.102V22.488z"/>
		<path fill="#FFFFFF" d="M67.896,21.121c0.287,0,0.53,0.1,0.729,0.297c0.198,0.199,0.297,0.441,0.297,0.729v2.051
			c0,0.283-0.099,0.525-0.297,0.726c-0.198,0.201-0.441,0.302-0.729,0.302h-0.342l2.051,2.733h-1.709l-3.076-4.103v4.103h-1.366
			v-6.836L67.896,21.121L67.896,21.121z M64.82,23.855h2.734v-1.367H64.82V23.855z"/>
		<path fill="#FFFFFF" d="M75.751,21.121c0.287,0,0.53,0.1,0.728,0.297c0.198,0.199,0.297,0.441,0.297,0.729v0.342h-2.733v5.47
			h-1.367v-5.47h-2.733v-0.342c0-0.287,0.1-0.528,0.301-0.729c0.201-0.197,0.441-0.297,0.725-0.297H75.751z"/>
		<path fill="#FFFFFF" d="M77.46,27.957v-6.836h1.367v6.836H77.46z M79.169,25.223h2.394v2.734h1.367v-6.836h-1.367v2.734h-2.394
			V25.223z"/>
		<path fill="#FFFFFF" d="M94.893,21.121c0.287,0,0.529,0.1,0.728,0.297c0.198,0.199,0.297,0.441,0.297,0.729v0.342h-4.103v1.367
			h3.076c0.287,0,0.53,0.101,0.729,0.297c0.197,0.199,0.297,0.441,0.297,0.729v2.052c0,0.287-0.1,0.528-0.297,0.729
			c-0.198,0.197-0.441,0.297-0.729,0.297h-3.418c-0.283,0-0.523-0.102-0.725-0.301c-0.201-0.2-0.301-0.442-0.301-0.725V26.59h4.102
			v-1.367h-3.076c-0.283,0-0.523-0.101-0.725-0.301c-0.201-0.199-0.301-0.441-0.301-0.725v-2.051c0-0.287,0.1-0.529,0.301-0.729
			c0.201-0.196,0.441-0.297,0.725-0.297L94.893,21.121L94.893,21.121z"/>
		<path fill="#FFFFFF" d="M102.412,21.121c0.287,0,0.529,0.1,0.729,0.297c0.197,0.199,0.297,0.441,0.297,0.729v0.342h-2.734v5.47
			h-1.367v-5.47h-2.734v-0.342c0-0.287,0.101-0.528,0.301-0.729c0.201-0.197,0.443-0.297,0.726-0.297H102.412z"/>
		<path fill="#FFFFFF" d="M103.779,27.957l2.734-6.836h1.366l2.734,6.836h-1.71l-0.479-1.367h-2.119l0.479-1.367h1.162l-0.753-2.152
			l-1.709,4.888L103.779,27.957L103.779,27.957z"/>
		<path fill="#FFFFFF" d="M115.4,21.121c0.287,0,0.529,0.1,0.728,0.297c0.198,0.199,0.297,0.441,0.297,0.729v2.051
			c0,0.283-0.099,0.525-0.297,0.726c-0.198,0.201-0.44,0.302-0.728,0.302h-0.342l2.051,2.733H115.4l-3.076-4.103v4.103h-1.367
			v-6.836L115.4,21.121L115.4,21.121z M112.324,23.855h2.734v-1.367h-2.734V23.855z"/>
	</g>
</g>
</svg>
